M48
; DRILL file {KiCad 9.0.2} date 2025-05-24T14:32:57-0400
; FORMAT={-:-/ absolute / metric / decimal}
; #@! TF.CreationDate,2025-05-24T14:32:57-04:00
; #@! TF.GenerationSoftware,Kicad,Pcbnew,9.0.2
; #@! TF.FileFunction,Plated,1,2,PTH
FMAT,2
METRIC
; #@! TA.AperFunction,Plated,PTH,ViaDrill
T1C0.300
; #@! TA.AperFunction,Plated,PTH,ComponentDrill
T2C0.700
; #@! TA.AperFunction,Plated,PTH,ComponentDrill
T3C1.092
; #@! TA.AperFunction,Plated,PTH,ComponentDrill
T4C1.270
%
G90
G05
T1
X58.75Y-79.75
X72.5Y-70.5
X98.0Y-74.25
X107.75Y-92.75
X109.0Y-96.25
X109.074Y-94.574
X111.0Y-91.75
X117.0Y-70.75
X117.5Y-67.75
T2
X22.625Y-110.5
X22.7Y-90.5
X24.9Y-70.75
X30.425Y-110.5
X30.5Y-90.5
X32.7Y-70.75
X42.525Y-97.25
X42.7Y-77.25
X45.15Y-57.0
X50.325Y-97.25
X50.5Y-77.25
X52.95Y-57.0
X62.7Y-72.25
X62.7Y-92.25
X70.5Y-72.25
X70.5Y-92.25
X72.775Y-54.25
X80.575Y-54.25
X82.45Y-77.25
X82.7Y-57.0
X82.7Y-97.25
X89.659Y-116.073
X90.25Y-77.25
X90.5Y-57.0
X90.5Y-97.25
X97.341Y-117.427
X102.2Y-60.25
X102.2Y-100.25
X102.45Y-80.25
X107.215Y-132.602
X110.0Y-60.25
X110.0Y-100.25
X110.25Y-80.25
X114.285Y-135.898
T3
X120.03Y-56.53
X120.03Y-59.07
X120.03Y-61.61
X120.03Y-64.15
X120.03Y-66.69
X120.03Y-69.23
X120.03Y-71.77
X120.03Y-74.31
X120.03Y-76.85
X120.03Y-79.39
X120.03Y-81.93
X120.03Y-84.47
X122.57Y-79.39
X125.11Y-79.39
X127.65Y-79.39
X135.27Y-56.53
X135.27Y-59.07
X135.27Y-61.61
X135.27Y-64.15
X135.27Y-66.69
X135.27Y-69.23
X135.27Y-71.77
X135.27Y-74.31
X135.27Y-76.85
X135.27Y-79.39
X135.27Y-81.93
X135.27Y-84.47
T4
X22.4Y-83.8
X22.4Y-103.8
X22.4Y-123.8
X27.4Y-85.9
X27.4Y-105.9
X27.4Y-125.9
X32.4Y-83.8
X32.4Y-103.8
X32.4Y-123.8
X42.4Y-70.55
X42.4Y-90.55
X42.4Y-110.55
X47.4Y-72.65
X47.4Y-92.65
X47.4Y-112.65
X52.4Y-70.55
X52.4Y-90.55
X52.4Y-110.55
X62.4Y-65.55
X62.4Y-85.55
X62.4Y-105.55
X67.4Y-67.65
X67.4Y-87.65
X67.4Y-107.65
X72.4Y-65.55
X72.4Y-85.55
X72.4Y-105.55
X82.4Y-70.55
X82.4Y-90.55
X82.4Y-110.55
X87.4Y-72.65
X87.4Y-92.65
X87.4Y-112.65
X90.566Y-132.374
X92.4Y-70.55
X92.4Y-90.55
X92.4Y-110.55
X95.125Y-135.31
X100.414Y-134.111
X102.15Y-73.55
X102.15Y-93.55
X102.15Y-113.55
X107.15Y-75.65
X107.15Y-95.65
X107.15Y-115.65
X112.15Y-73.55
X112.15Y-93.55
X112.15Y-113.55
X120.263Y-140.331
X123.907Y-144.347
X129.326Y-144.557
M30
