%TF.GenerationSoftware,KiCad,Pcbnew,9.0.2*%
%TF.CreationDate,2025-05-24T14:32:54-04:00*%
%TF.ProjectId,ErgoDecks,4572676f-4465-4636-9b73-2e6b69636164,rev?*%
%TF.SameCoordinates,Original*%
%TF.FileFunction,Copper,L1,Top*%
%TF.FilePolarity,Positive*%
%FSLAX46Y46*%
G04 Gerber Fmt 4.6, Leading zero omitted, Abs format (unit mm)*
G04 Created by KiCad (PCBNEW 9.0.2) date 2025-05-24 14:32:54*
%MOMM*%
%LPD*%
G01*
G04 APERTURE LIST*
G04 Aperture macros list*
%AMRotRect*
0 Rectangle, with rotation*
0 The origin of the aperture is its center*
0 $1 length*
0 $2 width*
0 $3 Rotation angle, in degrees counterclockwise*
0 Add horizontal line*
21,1,$1,$2,0,0,$3*%
G04 Aperture macros list end*
%TA.AperFunction,ComponentPad*%
%ADD10C,2.032000*%
%TD*%
%TA.AperFunction,ComponentPad*%
%ADD11C,1.752600*%
%TD*%
%TA.AperFunction,ComponentPad*%
%ADD12R,1.600000X1.600000*%
%TD*%
%TA.AperFunction,ComponentPad*%
%ADD13C,1.600000*%
%TD*%
%TA.AperFunction,ComponentPad*%
%ADD14RotRect,1.600000X1.600000X170.000000*%
%TD*%
%TA.AperFunction,ComponentPad*%
%ADD15RotRect,1.600000X1.600000X335.000000*%
%TD*%
%TA.AperFunction,ViaPad*%
%ADD16C,0.600000*%
%TD*%
%TA.AperFunction,Conductor*%
%ADD17C,0.200000*%
%TD*%
G04 APERTURE END LIST*
D10*
%TO.P,K15,1*%
%TO.N,/Col4*%
X107150000Y-115650000D03*
%TO.P,K15,2*%
%TO.N,Net-(D15-A)*%
X102150000Y-113550000D03*
X112150000Y-113550000D03*
%TD*%
%TO.P,K1,1*%
%TO.N,/Col0*%
X27400000Y-85900000D03*
%TO.P,K1,2*%
%TO.N,Net-(D1-A)*%
X22400000Y-83800000D03*
X32400000Y-83800000D03*
%TD*%
%TO.P,K17,1*%
%TO.N,/Col4*%
X123906552Y-144347216D03*
%TO.P,K17,2*%
%TO.N,Net-(D17-A)*%
X120262512Y-140330878D03*
X129325590Y-144557061D03*
%TD*%
%TO.P,K9,1*%
%TO.N,/Col2*%
X67400000Y-107650000D03*
%TO.P,K9,2*%
%TO.N,Net-(D9-A)*%
X62400000Y-105550000D03*
X72400000Y-105550000D03*
%TD*%
%TO.P,K16,1*%
%TO.N,/Col3*%
X95125476Y-135310366D03*
%TO.P,K16,2*%
%TO.N,Net-(D16-A)*%
X90566098Y-132374029D03*
X100414176Y-134110510D03*
%TD*%
%TO.P,K5,1*%
%TO.N,/Col1*%
X47400000Y-92650000D03*
%TO.P,K5,2*%
%TO.N,Net-(D5-A)*%
X42400000Y-90550000D03*
X52400000Y-90550000D03*
%TD*%
D11*
%TO.P,U1,1,TX0/P0.06*%
%TO.N,unconnected-(U1-TX0{slash}P0.06-Pad1)*%
X120030000Y-56530000D03*
%TO.P,U1,2,RX1/P0.08*%
%TO.N,unconnected-(U1-RX1{slash}P0.08-Pad2)*%
X120030000Y-59070000D03*
%TO.P,U1,3,GND*%
%TO.N,unconnected-(U1-GND-Pad3)*%
X120030000Y-61610000D03*
%TO.P,U1,4,GND*%
%TO.N,unconnected-(U1-GND-Pad4)*%
X120030000Y-64150000D03*
%TO.P,U1,5,P0.17*%
%TO.N,/Row0*%
X120030000Y-66690000D03*
%TO.P,U1,6,P0.20*%
%TO.N,/Row1*%
X120030000Y-69230000D03*
%TO.P,U1,7,P0.22*%
%TO.N,/Row2*%
X120030000Y-71770000D03*
%TO.P,U1,8,P0.24*%
%TO.N,/Row3*%
X120030000Y-74310000D03*
%TO.P,U1,9,P1.00*%
%TO.N,/Col0*%
X120030000Y-76850000D03*
%TO.P,U1,10,P0.11*%
%TO.N,/Col1*%
X120030000Y-79390000D03*
%TO.P,U1,11,P1.04*%
%TO.N,unconnected-(U1-P1.04-Pad11)*%
X120030000Y-81930000D03*
%TO.P,U1,12,P1.06*%
%TO.N,unconnected-(U1-P1.06-Pad12)*%
X120030000Y-84470000D03*
%TO.P,U1,13,NFC1/P0.09*%
%TO.N,unconnected-(U1-NFC1{slash}P0.09-Pad13)*%
X135270000Y-84470000D03*
%TO.P,U1,14,NFC2/P0.10*%
%TO.N,unconnected-(U1-NFC2{slash}P0.10-Pad14)*%
X135270000Y-81930000D03*
%TO.P,U1,15,P1.11*%
%TO.N,unconnected-(U1-P1.11-Pad15)*%
X135270000Y-79390000D03*
%TO.P,U1,16,P1.13*%
%TO.N,unconnected-(U1-P1.13-Pad16)*%
X135270000Y-76850000D03*
%TO.P,U1,17,P1.15*%
%TO.N,unconnected-(U1-P1.15-Pad17)*%
X135270000Y-74310000D03*
%TO.P,U1,18,AIN0/P0.02*%
%TO.N,/Col4*%
X135270000Y-71770000D03*
%TO.P,U1,19,AIN5/P0.29*%
%TO.N,/Col3*%
X135270000Y-69230000D03*
%TO.P,U1,20,AIN7/P0.31*%
%TO.N,/Col2*%
X135270000Y-66690000D03*
%TO.P,U1,21,VCC*%
%TO.N,unconnected-(U1-VCC-Pad21)*%
X135270000Y-64150000D03*
%TO.P,U1,22,RST*%
%TO.N,unconnected-(U1-RST-Pad22)*%
X135270000Y-61610000D03*
%TO.P,U1,23,GND*%
%TO.N,unconnected-(U1-GND-Pad23)*%
X135270000Y-59070000D03*
%TO.P,U1,24,BATIN/P0.04*%
%TO.N,unconnected-(U1-BATIN{slash}P0.04-Pad24)*%
X135270000Y-56530000D03*
%TO.P,U1,31,P1.01*%
%TO.N,unconnected-(U1-P1.01-Pad31)*%
X122570000Y-79390000D03*
%TO.P,U1,32,P1.02*%
%TO.N,unconnected-(U1-P1.02-Pad32)*%
X125110000Y-79390000D03*
%TO.P,U1,33,P1.07*%
%TO.N,unconnected-(U1-P1.07-Pad33)*%
X127650000Y-79390000D03*
%TD*%
D10*
%TO.P,K6,1*%
%TO.N,/Col1*%
X47400000Y-112650000D03*
%TO.P,K6,2*%
%TO.N,Net-(D6-A)*%
X42400000Y-110550000D03*
X52400000Y-110550000D03*
%TD*%
%TO.P,K4,1*%
%TO.N,/Col1*%
X47400000Y-72650000D03*
%TO.P,K4,2*%
%TO.N,Net-(D4-A)*%
X42400000Y-70550000D03*
X52400000Y-70550000D03*
%TD*%
%TO.P,K3,1*%
%TO.N,/Col0*%
X27400000Y-125900000D03*
%TO.P,K3,2*%
%TO.N,Net-(D3-A)*%
X22400000Y-123800000D03*
X32400000Y-123800000D03*
%TD*%
%TO.P,K7,1*%
%TO.N,/Col2*%
X67400000Y-67650000D03*
%TO.P,K7,2*%
%TO.N,Net-(D7-A)*%
X62400000Y-65550000D03*
X72400000Y-65550000D03*
%TD*%
%TO.P,K8,1*%
%TO.N,/Col2*%
X67400000Y-87650000D03*
%TO.P,K8,2*%
%TO.N,Net-(D8-A)*%
X62400000Y-85550000D03*
X72400000Y-85550000D03*
%TD*%
%TO.P,K13,1*%
%TO.N,/Col4*%
X107150000Y-75650000D03*
%TO.P,K13,2*%
%TO.N,Net-(D13-A)*%
X102150000Y-73550000D03*
X112150000Y-73550000D03*
%TD*%
%TO.P,K2,1*%
%TO.N,/Col0*%
X27400000Y-105900000D03*
%TO.P,K2,2*%
%TO.N,Net-(D2-A)*%
X22400000Y-103800000D03*
X32400000Y-103800000D03*
%TD*%
%TO.P,K11,1*%
%TO.N,/Col3*%
X87400000Y-92650000D03*
%TO.P,K11,2*%
%TO.N,Net-(D11-A)*%
X82400000Y-90550000D03*
X92400000Y-90550000D03*
%TD*%
%TO.P,K14,1*%
%TO.N,/Col4*%
X107150000Y-95650000D03*
%TO.P,K14,2*%
%TO.N,Net-(D14-A)*%
X102150000Y-93550000D03*
X112150000Y-93550000D03*
%TD*%
%TO.P,K10,1*%
%TO.N,/Col3*%
X87400000Y-72650000D03*
%TO.P,K10,2*%
%TO.N,Net-(D10-A)*%
X82400000Y-70550000D03*
X92400000Y-70550000D03*
%TD*%
%TO.P,K12,1*%
%TO.N,/Col3*%
X87400000Y-112650000D03*
%TO.P,K12,2*%
%TO.N,Net-(D12-A)*%
X82400000Y-110550000D03*
X92400000Y-110550000D03*
%TD*%
D12*
%TO.P,D3,1,K*%
%TO.N,/Row2*%
X30425000Y-110500000D03*
D13*
%TO.P,D3,2,A*%
%TO.N,Net-(D3-A)*%
X22625000Y-110500000D03*
%TD*%
D12*
%TO.P,D7,1,K*%
%TO.N,/Row0*%
X80575000Y-54250000D03*
D13*
%TO.P,D7,2,A*%
%TO.N,Net-(D7-A)*%
X72775000Y-54250000D03*
%TD*%
D12*
%TO.P,D11,1,K*%
%TO.N,/Row1*%
X90250000Y-77250000D03*
D13*
%TO.P,D11,2,A*%
%TO.N,Net-(D11-A)*%
X82450000Y-77250000D03*
%TD*%
D12*
%TO.P,D8,1,K*%
%TO.N,/Row1*%
X70500000Y-72250000D03*
D13*
%TO.P,D8,2,A*%
%TO.N,Net-(D8-A)*%
X62700000Y-72250000D03*
%TD*%
D12*
%TO.P,D2,1,K*%
%TO.N,/Row1*%
X30500000Y-90500000D03*
D13*
%TO.P,D2,2,A*%
%TO.N,Net-(D2-A)*%
X22700000Y-90500000D03*
%TD*%
D12*
%TO.P,D6,1,K*%
%TO.N,/Row2*%
X50324999Y-97250000D03*
D13*
%TO.P,D6,2,A*%
%TO.N,Net-(D6-A)*%
X42525001Y-97250000D03*
%TD*%
D12*
%TO.P,D15,1,K*%
%TO.N,/Row2*%
X110000000Y-100250000D03*
D13*
%TO.P,D15,2,A*%
%TO.N,Net-(D15-A)*%
X102200000Y-100250000D03*
%TD*%
D12*
%TO.P,D13,1,K*%
%TO.N,/Row0*%
X110000000Y-60250000D03*
D13*
%TO.P,D13,2,A*%
%TO.N,Net-(D13-A)*%
X102200000Y-60250000D03*
%TD*%
D12*
%TO.P,D10,1,K*%
%TO.N,/Row0*%
X90500000Y-57000000D03*
D13*
%TO.P,D10,2,A*%
%TO.N,Net-(D10-A)*%
X82700000Y-57000000D03*
%TD*%
D12*
%TO.P,D12,1,K*%
%TO.N,/Row2*%
X90500000Y-97250000D03*
D13*
%TO.P,D12,2,A*%
%TO.N,Net-(D12-A)*%
X82700000Y-97250000D03*
%TD*%
D14*
%TO.P,D16,1,K*%
%TO.N,/Row3*%
X97340750Y-117427228D03*
D13*
%TO.P,D16,2,A*%
%TO.N,Net-(D16-A)*%
X89659250Y-116072772D03*
%TD*%
D12*
%TO.P,D9,1,K*%
%TO.N,/Row2*%
X70500000Y-92250000D03*
D13*
%TO.P,D9,2,A*%
%TO.N,Net-(D9-A)*%
X62700000Y-92250000D03*
%TD*%
D15*
%TO.P,D17,1,K*%
%TO.N,/Row3*%
X107215400Y-132601789D03*
D13*
%TO.P,D17,2,A*%
%TO.N,Net-(D17-A)*%
X114284600Y-135898211D03*
%TD*%
D12*
%TO.P,D1,1,K*%
%TO.N,/Row0*%
X32700000Y-70750000D03*
D13*
%TO.P,D1,2,A*%
%TO.N,Net-(D1-A)*%
X24900000Y-70750000D03*
%TD*%
D12*
%TO.P,D5,1,K*%
%TO.N,/Row1*%
X50500000Y-77250000D03*
D13*
%TO.P,D5,2,A*%
%TO.N,Net-(D5-A)*%
X42700000Y-77250000D03*
%TD*%
D12*
%TO.P,D4,1,K*%
%TO.N,/Row0*%
X52950000Y-57000000D03*
D13*
%TO.P,D4,2,A*%
%TO.N,Net-(D4-A)*%
X45150000Y-57000000D03*
%TD*%
D12*
%TO.P,D14,1,K*%
%TO.N,/Row1*%
X110250000Y-80250000D03*
D13*
%TO.P,D14,2,A*%
%TO.N,Net-(D14-A)*%
X102450000Y-80250000D03*
%TD*%
D16*
%TO.N,Net-(D14-A)*%
X111000000Y-91750000D03*
X109074265Y-94574265D03*
X107750000Y-92750000D03*
%TO.N,/Col1*%
X58750000Y-79750000D03*
X109000000Y-96250000D03*
%TO.N,/Col2*%
X72500000Y-70500000D03*
X117500000Y-67750000D03*
%TO.N,/Col3*%
X98000000Y-74250000D03*
X117000000Y-70750000D03*
%TD*%
D17*
%TO.N,Net-(D1-A)*%
X24900000Y-81300000D02*
X22400000Y-83800000D01*
X24900000Y-70750000D02*
X24900000Y-81300000D01*
%TO.N,Net-(D2-A)*%
X23499999Y-91299999D02*
X23499999Y-102700001D01*
X23499999Y-102700001D02*
X22400000Y-103800000D01*
X22700000Y-90500000D02*
X23499999Y-91299999D01*
%TO.N,Net-(D3-A)*%
X22625000Y-110500000D02*
X23424999Y-111299999D01*
X23424999Y-111299999D02*
X23424999Y-122775001D01*
X23424999Y-122775001D02*
X22400000Y-123800000D01*
%TO.N,Net-(D4-A)*%
X45150000Y-67800000D02*
X42400000Y-70550000D01*
X45150000Y-57000000D02*
X45150000Y-67800000D01*
%TO.N,Net-(D5-A)*%
X43499999Y-78049999D02*
X43499999Y-89450001D01*
X42700000Y-77250000D02*
X43499999Y-78049999D01*
X43499999Y-89450001D02*
X42400000Y-90550000D01*
%TO.N,Net-(D6-A)*%
X43325000Y-109625000D02*
X42400000Y-110550000D01*
X42525001Y-97250000D02*
X43325000Y-98049999D01*
X43325000Y-98049999D02*
X43325000Y-109625000D01*
%TO.N,Net-(D8-A)*%
X63415999Y-72965999D02*
X62700000Y-72250000D01*
X62400000Y-85550000D02*
X63415999Y-84534001D01*
X63415999Y-84534001D02*
X63415999Y-72965999D01*
%TO.N,Net-(D9-A)*%
X63415999Y-104534001D02*
X63415999Y-92965999D01*
X62400000Y-105550000D02*
X63415999Y-104534001D01*
X63415999Y-92965999D02*
X62700000Y-92250000D01*
%TO.N,Net-(D10-A)*%
X83415999Y-57715999D02*
X82700000Y-57000000D01*
X82400000Y-70550000D02*
X83415999Y-69534001D01*
X83415999Y-69534001D02*
X83415999Y-57715999D01*
%TO.N,Net-(D11-A)*%
X83415999Y-78215999D02*
X82450000Y-77250000D01*
X83415999Y-89534001D02*
X83415999Y-78215999D01*
X82400000Y-90550000D02*
X83415999Y-89534001D01*
%TO.N,Net-(D12-A)*%
X82700000Y-97250000D02*
X83499999Y-98049999D01*
X83499999Y-98049999D02*
X83499999Y-109450001D01*
X83499999Y-109450001D02*
X82400000Y-110550000D01*
%TO.N,Net-(D13-A)*%
X102200000Y-60250000D02*
X102999999Y-61049999D01*
X102999999Y-72700001D02*
X102150000Y-73550000D01*
X102999999Y-61049999D02*
X102999999Y-72700001D01*
%TO.N,Net-(D14-A)*%
X102450000Y-80250000D02*
X103249999Y-81049999D01*
X111000000Y-91750000D02*
X111000000Y-92648530D01*
X103249999Y-81049999D02*
X103249999Y-92450001D01*
X103249999Y-92450001D02*
X102150000Y-93550000D01*
X106950000Y-93550000D02*
X102150000Y-93550000D01*
X107750000Y-92750000D02*
X106950000Y-93550000D01*
X111000000Y-92648530D02*
X109074265Y-94574265D01*
%TO.N,Net-(D15-A)*%
X102999999Y-101049999D02*
X102999999Y-112700001D01*
X102999999Y-112700001D02*
X102150000Y-113550000D01*
X102200000Y-100250000D02*
X102999999Y-101049999D01*
%TO.N,Net-(D16-A)*%
X92750269Y-130189858D02*
X90566098Y-132374029D01*
X92750269Y-119163791D02*
X92750269Y-130189858D01*
X89659250Y-116072772D02*
X92750269Y-119163791D01*
%TO.N,Net-(D17-A)*%
X116675669Y-138289280D02*
X114284600Y-135898211D01*
X120262512Y-140330878D02*
X118220914Y-138289280D01*
X118220914Y-138289280D02*
X116675669Y-138289280D01*
%TO.N,/Col0*%
X25334500Y-107965500D02*
X25334500Y-123834500D01*
X27400000Y-105900000D02*
X25334500Y-107965500D01*
X111070480Y-74333000D02*
X111604480Y-74867000D01*
X105937480Y-75000000D02*
X106604480Y-74333000D01*
X93636480Y-73649000D02*
X100386480Y-73649000D01*
X111604480Y-74867000D02*
X116979000Y-74867000D01*
X106604480Y-74333000D02*
X111070480Y-74333000D01*
X64937480Y-68250000D02*
X66854480Y-66333000D01*
X27400000Y-85900000D02*
X25334500Y-87965500D01*
X116979000Y-74867000D02*
X117513000Y-74333000D01*
X101737480Y-75000000D02*
X105937480Y-75000000D01*
X49937480Y-68250000D02*
X64937480Y-68250000D01*
X32287480Y-85900000D02*
X49937480Y-68250000D01*
X25334500Y-87965500D02*
X25334500Y-103834500D01*
X27400000Y-85900000D02*
X32287480Y-85900000D01*
X86937480Y-71250000D02*
X91237480Y-71250000D01*
X100386480Y-73649000D02*
X101737480Y-75000000D01*
X25334500Y-103834500D02*
X27400000Y-105900000D01*
X86320480Y-71867000D02*
X86937480Y-71250000D01*
X74959950Y-71867000D02*
X86320480Y-71867000D01*
X66854480Y-66333000D02*
X69425950Y-66333000D01*
X117513000Y-74333000D02*
X120030000Y-76850000D01*
X91237480Y-71250000D02*
X93636480Y-73649000D01*
X69425950Y-66333000D02*
X74959950Y-71867000D01*
X25334500Y-123834500D02*
X27400000Y-125900000D01*
%TO.N,/Col1*%
X45334500Y-94715500D02*
X45334500Y-110584500D01*
X113851900Y-93710620D02*
X111312520Y-96250000D01*
X47400000Y-72650000D02*
X45334500Y-74715500D01*
X45334500Y-110584500D02*
X47400000Y-112650000D01*
X111312520Y-96250000D02*
X109000000Y-96250000D01*
X47400000Y-92650000D02*
X45334500Y-94715500D01*
X113851900Y-85568100D02*
X113851900Y-93710620D01*
X45334500Y-90584500D02*
X47400000Y-92650000D01*
X47400000Y-72650000D02*
X51650000Y-72650000D01*
X120030000Y-79390000D02*
X113851900Y-85568100D01*
X51650000Y-72650000D02*
X58750000Y-79750000D01*
X45334500Y-74715500D02*
X45334500Y-90584500D01*
%TO.N,/Col2*%
X117500000Y-67750000D02*
X117617300Y-67867300D01*
X65334500Y-69715500D02*
X65334500Y-85584500D01*
X70250000Y-70500000D02*
X72500000Y-70500000D01*
X67400000Y-67650000D02*
X70250000Y-70500000D01*
X117617300Y-67867300D02*
X134092700Y-67867300D01*
X65334500Y-89715500D02*
X65334500Y-105584500D01*
X134092700Y-67867300D02*
X135270000Y-66690000D01*
X67400000Y-87650000D02*
X65334500Y-89715500D01*
X65334500Y-105584500D02*
X67400000Y-107650000D01*
X67400000Y-67650000D02*
X65334500Y-69715500D01*
X65334500Y-85584500D02*
X67400000Y-87650000D01*
%TO.N,/Col3*%
X88415999Y-113665999D02*
X87400000Y-112650000D01*
X88415999Y-132086450D02*
X88415999Y-113665999D01*
X91639915Y-135310366D02*
X88415999Y-132086450D01*
X87400000Y-72650000D02*
X89000000Y-74250000D01*
X85334500Y-110584500D02*
X87400000Y-112650000D01*
X89465500Y-90584500D02*
X87400000Y-92650000D01*
X95125476Y-135310366D02*
X91639915Y-135310366D01*
X89000000Y-74250000D02*
X98000000Y-74250000D01*
X134000000Y-70500000D02*
X135270000Y-69230000D01*
X117250000Y-70500000D02*
X134000000Y-70500000D01*
X85334500Y-94715500D02*
X85334500Y-110584500D01*
X89465500Y-78667500D02*
X89465500Y-90584500D01*
X87400000Y-92650000D02*
X85334500Y-94715500D01*
X87400000Y-72650000D02*
X87400000Y-76602000D01*
X87400000Y-76602000D02*
X89465500Y-78667500D01*
X117000000Y-70750000D02*
X117250000Y-70500000D01*
%TO.N,/Col4*%
X128827300Y-78212700D02*
X135270000Y-71770000D01*
X123906552Y-142112398D02*
X107150000Y-125355846D01*
X107150000Y-79285500D02*
X107150000Y-75650000D01*
X105084500Y-113584500D02*
X105084500Y-97715500D01*
X123906552Y-144347216D02*
X123906552Y-142112398D01*
X107150000Y-75650000D02*
X109712700Y-78212700D01*
X107150000Y-115650000D02*
X105084500Y-113584500D01*
X109215500Y-93584500D02*
X109215500Y-81351000D01*
X109712700Y-78212700D02*
X128827300Y-78212700D01*
X107150000Y-125355846D02*
X107150000Y-115650000D01*
X107150000Y-95650000D02*
X109215500Y-93584500D01*
X105084500Y-97715500D02*
X107150000Y-95650000D01*
X109215500Y-81351000D02*
X107150000Y-79285500D01*
%TD*%
M02*
