%TF.GenerationSoftware,KiCad,Pcbnew,9.0.2*%
%TF.CreationDate,2025-05-24T14:32:55-04:00*%
%TF.ProjectId,ErgoDecks,4572676f-4465-4636-9b73-2e6b69636164,rev?*%
%TF.SameCoordinates,Original*%
%TF.FileFunction,Legend,Bot*%
%TF.FilePolarity,Positive*%
%FSLAX46Y46*%
G04 Gerber Fmt 4.6, Leading zero omitted, Abs format (unit mm)*
G04 Created by KiCad (PCBNEW 9.0.2) date 2025-05-24 14:32:55*
%MOMM*%
%LPD*%
G01*
G04 APERTURE LIST*
G04 Aperture macros list*
%AMRotRect*
0 Rectangle, with rotation*
0 The origin of the aperture is its center*
0 $1 length*
0 $2 width*
0 $3 Rotation angle, in degrees counterclockwise*
0 Add horizontal line*
21,1,$1,$2,0,0,$3*%
G04 Aperture macros list end*
%ADD10C,0.150000*%
%ADD11C,0.381000*%
%ADD12C,0.200000*%
%ADD13C,1.752600*%
%ADD14R,1.600000X1.600000*%
%ADD15C,1.600000*%
%ADD16RotRect,1.600000X1.600000X170.000000*%
%ADD17RotRect,1.600000X1.600000X335.000000*%
G04 APERTURE END LIST*
D10*
X108364285Y-101949819D02*
X108364285Y-100949819D01*
X107792857Y-101949819D02*
X108221428Y-101378390D01*
X107792857Y-100949819D02*
X108364285Y-101521247D01*
X106840476Y-101949819D02*
X107411904Y-101949819D01*
X107126190Y-101949819D02*
X107126190Y-100949819D01*
X107126190Y-100949819D02*
X107221428Y-101092676D01*
X107221428Y-101092676D02*
X107316666Y-101187914D01*
X107316666Y-101187914D02*
X107411904Y-101235533D01*
X105935714Y-100949819D02*
X106411904Y-100949819D01*
X106411904Y-100949819D02*
X106459523Y-101426009D01*
X106459523Y-101426009D02*
X106411904Y-101378390D01*
X106411904Y-101378390D02*
X106316666Y-101330771D01*
X106316666Y-101330771D02*
X106078571Y-101330771D01*
X106078571Y-101330771D02*
X105983333Y-101378390D01*
X105983333Y-101378390D02*
X105935714Y-101426009D01*
X105935714Y-101426009D02*
X105888095Y-101521247D01*
X105888095Y-101521247D02*
X105888095Y-101759342D01*
X105888095Y-101759342D02*
X105935714Y-101854580D01*
X105935714Y-101854580D02*
X105983333Y-101902200D01*
X105983333Y-101902200D02*
X106078571Y-101949819D01*
X106078571Y-101949819D02*
X106316666Y-101949819D01*
X106316666Y-101949819D02*
X106411904Y-101902200D01*
X106411904Y-101902200D02*
X106459523Y-101854580D01*
X28138094Y-72199819D02*
X28138094Y-71199819D01*
X27566666Y-72199819D02*
X27995237Y-71628390D01*
X27566666Y-71199819D02*
X28138094Y-71771247D01*
X26614285Y-72199819D02*
X27185713Y-72199819D01*
X26899999Y-72199819D02*
X26899999Y-71199819D01*
X26899999Y-71199819D02*
X26995237Y-71342676D01*
X26995237Y-71342676D02*
X27090475Y-71437914D01*
X27090475Y-71437914D02*
X27185713Y-71485533D01*
X130797015Y-132443814D02*
X131219634Y-131537506D01*
X130279125Y-132202318D02*
X130909039Y-131865550D01*
X130701743Y-131296010D02*
X130978137Y-132055396D01*
X129415975Y-131799824D02*
X129933865Y-132041320D01*
X129674920Y-131920572D02*
X130097538Y-131014264D01*
X130097538Y-131014264D02*
X130123479Y-131183986D01*
X130123479Y-131183986D02*
X130169545Y-131310551D01*
X130169545Y-131310551D02*
X130235735Y-131393958D01*
X129536490Y-130752644D02*
X128932285Y-130470898D01*
X128932285Y-130470898D02*
X128898085Y-131558328D01*
X68138094Y-93949819D02*
X68138094Y-92949819D01*
X67566666Y-93949819D02*
X67995237Y-93378390D01*
X67566666Y-92949819D02*
X68138094Y-93521247D01*
X67090475Y-93949819D02*
X66899999Y-93949819D01*
X66899999Y-93949819D02*
X66804761Y-93902200D01*
X66804761Y-93902200D02*
X66757142Y-93854580D01*
X66757142Y-93854580D02*
X66661904Y-93711723D01*
X66661904Y-93711723D02*
X66614285Y-93521247D01*
X66614285Y-93521247D02*
X66614285Y-93140295D01*
X66614285Y-93140295D02*
X66661904Y-93045057D01*
X66661904Y-93045057D02*
X66709523Y-92997438D01*
X66709523Y-92997438D02*
X66804761Y-92949819D01*
X66804761Y-92949819D02*
X66995237Y-92949819D01*
X66995237Y-92949819D02*
X67090475Y-92997438D01*
X67090475Y-92997438D02*
X67138094Y-93045057D01*
X67138094Y-93045057D02*
X67185713Y-93140295D01*
X67185713Y-93140295D02*
X67185713Y-93378390D01*
X67185713Y-93378390D02*
X67138094Y-93473628D01*
X67138094Y-93473628D02*
X67090475Y-93521247D01*
X67090475Y-93521247D02*
X66995237Y-93568866D01*
X66995237Y-93568866D02*
X66804761Y-93568866D01*
X66804761Y-93568866D02*
X66709523Y-93521247D01*
X66709523Y-93521247D02*
X66661904Y-93473628D01*
X66661904Y-93473628D02*
X66614285Y-93378390D01*
X98700325Y-122029179D02*
X98873973Y-121044372D01*
X98137578Y-121929952D02*
X98658866Y-121441625D01*
X98311226Y-120945144D02*
X98774746Y-121607119D01*
X97199666Y-121764573D02*
X97762413Y-121863800D01*
X97481039Y-121814186D02*
X97654687Y-120829379D01*
X97654687Y-120829379D02*
X97723672Y-120986603D01*
X97723672Y-120986603D02*
X97800925Y-121096932D01*
X97800925Y-121096932D02*
X97886447Y-121160366D01*
X96529193Y-120630924D02*
X96716775Y-120663999D01*
X96716775Y-120663999D02*
X96802297Y-120727433D01*
X96802297Y-120727433D02*
X96840924Y-120782597D01*
X96840924Y-120782597D02*
X96909908Y-120939822D01*
X96909908Y-120939822D02*
X96923728Y-121135674D01*
X96923728Y-121135674D02*
X96857577Y-121510838D01*
X96857577Y-121510838D02*
X96794143Y-121596361D01*
X96794143Y-121596361D02*
X96738978Y-121634987D01*
X96738978Y-121634987D02*
X96636918Y-121665345D01*
X96636918Y-121665345D02*
X96449336Y-121632269D01*
X96449336Y-121632269D02*
X96363814Y-121568836D01*
X96363814Y-121568836D02*
X96325187Y-121513671D01*
X96325187Y-121513671D02*
X96294829Y-121411611D01*
X96294829Y-121411611D02*
X96336174Y-121177133D01*
X96336174Y-121177133D02*
X96399608Y-121091611D01*
X96399608Y-121091611D02*
X96454772Y-121052984D01*
X96454772Y-121052984D02*
X96556832Y-121022626D01*
X96556832Y-121022626D02*
X96744415Y-121055702D01*
X96744415Y-121055702D02*
X96829937Y-121119136D01*
X96829937Y-121119136D02*
X96868564Y-121174300D01*
X96868564Y-121174300D02*
X96898921Y-121276360D01*
X48138094Y-78949819D02*
X48138094Y-77949819D01*
X47566666Y-78949819D02*
X47995237Y-78378390D01*
X47566666Y-77949819D02*
X48138094Y-78521247D01*
X46661904Y-77949819D02*
X47138094Y-77949819D01*
X47138094Y-77949819D02*
X47185713Y-78426009D01*
X47185713Y-78426009D02*
X47138094Y-78378390D01*
X47138094Y-78378390D02*
X47042856Y-78330771D01*
X47042856Y-78330771D02*
X46804761Y-78330771D01*
X46804761Y-78330771D02*
X46709523Y-78378390D01*
X46709523Y-78378390D02*
X46661904Y-78426009D01*
X46661904Y-78426009D02*
X46614285Y-78521247D01*
X46614285Y-78521247D02*
X46614285Y-78759342D01*
X46614285Y-78759342D02*
X46661904Y-78854580D01*
X46661904Y-78854580D02*
X46709523Y-78902200D01*
X46709523Y-78902200D02*
X46804761Y-78949819D01*
X46804761Y-78949819D02*
X47042856Y-78949819D01*
X47042856Y-78949819D02*
X47138094Y-78902200D01*
X47138094Y-78902200D02*
X47185713Y-78854580D01*
X133987190Y-68792295D02*
X133911000Y-68792295D01*
X133911000Y-68792295D02*
X133834809Y-68830390D01*
X133834809Y-68830390D02*
X133796714Y-68868485D01*
X133796714Y-68868485D02*
X133758619Y-68944676D01*
X133758619Y-68944676D02*
X133720524Y-69097057D01*
X133720524Y-69097057D02*
X133720524Y-69287533D01*
X133720524Y-69287533D02*
X133758619Y-69439914D01*
X133758619Y-69439914D02*
X133796714Y-69516104D01*
X133796714Y-69516104D02*
X133834809Y-69554200D01*
X133834809Y-69554200D02*
X133911000Y-69592295D01*
X133911000Y-69592295D02*
X133987190Y-69592295D01*
X133987190Y-69592295D02*
X134063381Y-69554200D01*
X134063381Y-69554200D02*
X134101476Y-69516104D01*
X134101476Y-69516104D02*
X134139571Y-69439914D01*
X134139571Y-69439914D02*
X134177667Y-69287533D01*
X134177667Y-69287533D02*
X134177667Y-69097057D01*
X134177667Y-69097057D02*
X134139571Y-68944676D01*
X134139571Y-68944676D02*
X134101476Y-68868485D01*
X134101476Y-68868485D02*
X134063381Y-68830390D01*
X134063381Y-68830390D02*
X133987190Y-68792295D01*
X133415762Y-68868485D02*
X133377666Y-68830390D01*
X133377666Y-68830390D02*
X133301476Y-68792295D01*
X133301476Y-68792295D02*
X133111000Y-68792295D01*
X133111000Y-68792295D02*
X133034809Y-68830390D01*
X133034809Y-68830390D02*
X132996714Y-68868485D01*
X132996714Y-68868485D02*
X132958619Y-68944676D01*
X132958619Y-68944676D02*
X132958619Y-69020866D01*
X132958619Y-69020866D02*
X132996714Y-69135152D01*
X132996714Y-69135152D02*
X133453857Y-69592295D01*
X133453857Y-69592295D02*
X132958619Y-69592295D01*
X132577666Y-69592295D02*
X132425285Y-69592295D01*
X132425285Y-69592295D02*
X132349095Y-69554200D01*
X132349095Y-69554200D02*
X132310999Y-69516104D01*
X132310999Y-69516104D02*
X132234809Y-69401819D01*
X132234809Y-69401819D02*
X132196714Y-69249438D01*
X132196714Y-69249438D02*
X132196714Y-68944676D01*
X132196714Y-68944676D02*
X132234809Y-68868485D01*
X132234809Y-68868485D02*
X132272904Y-68830390D01*
X132272904Y-68830390D02*
X132349095Y-68792295D01*
X132349095Y-68792295D02*
X132501476Y-68792295D01*
X132501476Y-68792295D02*
X132577666Y-68830390D01*
X132577666Y-68830390D02*
X132615761Y-68868485D01*
X132615761Y-68868485D02*
X132653857Y-68944676D01*
X132653857Y-68944676D02*
X132653857Y-69135152D01*
X132653857Y-69135152D02*
X132615761Y-69211342D01*
X132615761Y-69211342D02*
X132577666Y-69249438D01*
X132577666Y-69249438D02*
X132501476Y-69287533D01*
X132501476Y-69287533D02*
X132349095Y-69287533D01*
X132349095Y-69287533D02*
X132272904Y-69249438D01*
X132272904Y-69249438D02*
X132234809Y-69211342D01*
X132234809Y-69211342D02*
X132196714Y-69135152D01*
X133720524Y-77212295D02*
X134177667Y-77212295D01*
X133949095Y-77212295D02*
X133949095Y-76412295D01*
X133949095Y-76412295D02*
X134025286Y-76526580D01*
X134025286Y-76526580D02*
X134101476Y-76602771D01*
X134101476Y-76602771D02*
X134177667Y-76640866D01*
X132958619Y-77212295D02*
X133415762Y-77212295D01*
X133187190Y-77212295D02*
X133187190Y-76412295D01*
X133187190Y-76412295D02*
X133263381Y-76526580D01*
X133263381Y-76526580D02*
X133339571Y-76602771D01*
X133339571Y-76602771D02*
X133415762Y-76640866D01*
X132691952Y-76412295D02*
X132196714Y-76412295D01*
X132196714Y-76412295D02*
X132463380Y-76717057D01*
X132463380Y-76717057D02*
X132349095Y-76717057D01*
X132349095Y-76717057D02*
X132272904Y-76755152D01*
X132272904Y-76755152D02*
X132234809Y-76793247D01*
X132234809Y-76793247D02*
X132196714Y-76869438D01*
X132196714Y-76869438D02*
X132196714Y-77059914D01*
X132196714Y-77059914D02*
X132234809Y-77136104D01*
X132234809Y-77136104D02*
X132272904Y-77174200D01*
X132272904Y-77174200D02*
X132349095Y-77212295D01*
X132349095Y-77212295D02*
X132577666Y-77212295D01*
X132577666Y-77212295D02*
X132653857Y-77174200D01*
X132653857Y-77174200D02*
X132691952Y-77136104D01*
X133987190Y-71332295D02*
X133911000Y-71332295D01*
X133911000Y-71332295D02*
X133834809Y-71370390D01*
X133834809Y-71370390D02*
X133796714Y-71408485D01*
X133796714Y-71408485D02*
X133758619Y-71484676D01*
X133758619Y-71484676D02*
X133720524Y-71637057D01*
X133720524Y-71637057D02*
X133720524Y-71827533D01*
X133720524Y-71827533D02*
X133758619Y-71979914D01*
X133758619Y-71979914D02*
X133796714Y-72056104D01*
X133796714Y-72056104D02*
X133834809Y-72094200D01*
X133834809Y-72094200D02*
X133911000Y-72132295D01*
X133911000Y-72132295D02*
X133987190Y-72132295D01*
X133987190Y-72132295D02*
X134063381Y-72094200D01*
X134063381Y-72094200D02*
X134101476Y-72056104D01*
X134101476Y-72056104D02*
X134139571Y-71979914D01*
X134139571Y-71979914D02*
X134177667Y-71827533D01*
X134177667Y-71827533D02*
X134177667Y-71637057D01*
X134177667Y-71637057D02*
X134139571Y-71484676D01*
X134139571Y-71484676D02*
X134101476Y-71408485D01*
X134101476Y-71408485D02*
X134063381Y-71370390D01*
X134063381Y-71370390D02*
X133987190Y-71332295D01*
X133225285Y-71332295D02*
X133149095Y-71332295D01*
X133149095Y-71332295D02*
X133072904Y-71370390D01*
X133072904Y-71370390D02*
X133034809Y-71408485D01*
X133034809Y-71408485D02*
X132996714Y-71484676D01*
X132996714Y-71484676D02*
X132958619Y-71637057D01*
X132958619Y-71637057D02*
X132958619Y-71827533D01*
X132958619Y-71827533D02*
X132996714Y-71979914D01*
X132996714Y-71979914D02*
X133034809Y-72056104D01*
X133034809Y-72056104D02*
X133072904Y-72094200D01*
X133072904Y-72094200D02*
X133149095Y-72132295D01*
X133149095Y-72132295D02*
X133225285Y-72132295D01*
X133225285Y-72132295D02*
X133301476Y-72094200D01*
X133301476Y-72094200D02*
X133339571Y-72056104D01*
X133339571Y-72056104D02*
X133377666Y-71979914D01*
X133377666Y-71979914D02*
X133415762Y-71827533D01*
X133415762Y-71827533D02*
X133415762Y-71637057D01*
X133415762Y-71637057D02*
X133377666Y-71484676D01*
X133377666Y-71484676D02*
X133339571Y-71408485D01*
X133339571Y-71408485D02*
X133301476Y-71370390D01*
X133301476Y-71370390D02*
X133225285Y-71332295D01*
X132653857Y-71408485D02*
X132615761Y-71370390D01*
X132615761Y-71370390D02*
X132539571Y-71332295D01*
X132539571Y-71332295D02*
X132349095Y-71332295D01*
X132349095Y-71332295D02*
X132272904Y-71370390D01*
X132272904Y-71370390D02*
X132234809Y-71408485D01*
X132234809Y-71408485D02*
X132196714Y-71484676D01*
X132196714Y-71484676D02*
X132196714Y-71560866D01*
X132196714Y-71560866D02*
X132234809Y-71675152D01*
X132234809Y-71675152D02*
X132691952Y-72132295D01*
X132691952Y-72132295D02*
X132196714Y-72132295D01*
X122912809Y-73862295D02*
X122836619Y-73862295D01*
X122836619Y-73862295D02*
X122760428Y-73900390D01*
X122760428Y-73900390D02*
X122722333Y-73938485D01*
X122722333Y-73938485D02*
X122684238Y-74014676D01*
X122684238Y-74014676D02*
X122646143Y-74167057D01*
X122646143Y-74167057D02*
X122646143Y-74357533D01*
X122646143Y-74357533D02*
X122684238Y-74509914D01*
X122684238Y-74509914D02*
X122722333Y-74586104D01*
X122722333Y-74586104D02*
X122760428Y-74624200D01*
X122760428Y-74624200D02*
X122836619Y-74662295D01*
X122836619Y-74662295D02*
X122912809Y-74662295D01*
X122912809Y-74662295D02*
X122989000Y-74624200D01*
X122989000Y-74624200D02*
X123027095Y-74586104D01*
X123027095Y-74586104D02*
X123065190Y-74509914D01*
X123065190Y-74509914D02*
X123103286Y-74357533D01*
X123103286Y-74357533D02*
X123103286Y-74167057D01*
X123103286Y-74167057D02*
X123065190Y-74014676D01*
X123065190Y-74014676D02*
X123027095Y-73938485D01*
X123027095Y-73938485D02*
X122989000Y-73900390D01*
X122989000Y-73900390D02*
X122912809Y-73862295D01*
X122341381Y-73938485D02*
X122303285Y-73900390D01*
X122303285Y-73900390D02*
X122227095Y-73862295D01*
X122227095Y-73862295D02*
X122036619Y-73862295D01*
X122036619Y-73862295D02*
X121960428Y-73900390D01*
X121960428Y-73900390D02*
X121922333Y-73938485D01*
X121922333Y-73938485D02*
X121884238Y-74014676D01*
X121884238Y-74014676D02*
X121884238Y-74090866D01*
X121884238Y-74090866D02*
X121922333Y-74205152D01*
X121922333Y-74205152D02*
X122379476Y-74662295D01*
X122379476Y-74662295D02*
X121884238Y-74662295D01*
X121198523Y-74128961D02*
X121198523Y-74662295D01*
X121388999Y-73824200D02*
X121579476Y-74395628D01*
X121579476Y-74395628D02*
X121084237Y-74395628D01*
X122798523Y-63750390D02*
X122874713Y-63712295D01*
X122874713Y-63712295D02*
X122988999Y-63712295D01*
X122988999Y-63712295D02*
X123103285Y-63750390D01*
X123103285Y-63750390D02*
X123179475Y-63826580D01*
X123179475Y-63826580D02*
X123217570Y-63902771D01*
X123217570Y-63902771D02*
X123255666Y-64055152D01*
X123255666Y-64055152D02*
X123255666Y-64169438D01*
X123255666Y-64169438D02*
X123217570Y-64321819D01*
X123217570Y-64321819D02*
X123179475Y-64398009D01*
X123179475Y-64398009D02*
X123103285Y-64474200D01*
X123103285Y-64474200D02*
X122988999Y-64512295D01*
X122988999Y-64512295D02*
X122912808Y-64512295D01*
X122912808Y-64512295D02*
X122798523Y-64474200D01*
X122798523Y-64474200D02*
X122760427Y-64436104D01*
X122760427Y-64436104D02*
X122760427Y-64169438D01*
X122760427Y-64169438D02*
X122912808Y-64169438D01*
X122417570Y-64512295D02*
X122417570Y-63712295D01*
X122417570Y-63712295D02*
X121960427Y-64512295D01*
X121960427Y-64512295D02*
X121960427Y-63712295D01*
X121579475Y-64512295D02*
X121579475Y-63712295D01*
X121579475Y-63712295D02*
X121388999Y-63712295D01*
X121388999Y-63712295D02*
X121274713Y-63750390D01*
X121274713Y-63750390D02*
X121198523Y-63826580D01*
X121198523Y-63826580D02*
X121160428Y-63902771D01*
X121160428Y-63902771D02*
X121122332Y-64055152D01*
X121122332Y-64055152D02*
X121122332Y-64169438D01*
X121122332Y-64169438D02*
X121160428Y-64321819D01*
X121160428Y-64321819D02*
X121198523Y-64398009D01*
X121198523Y-64398009D02*
X121274713Y-64474200D01*
X121274713Y-64474200D02*
X121388999Y-64512295D01*
X121388999Y-64512295D02*
X121579475Y-64512295D01*
X133987190Y-81492295D02*
X133911000Y-81492295D01*
X133911000Y-81492295D02*
X133834809Y-81530390D01*
X133834809Y-81530390D02*
X133796714Y-81568485D01*
X133796714Y-81568485D02*
X133758619Y-81644676D01*
X133758619Y-81644676D02*
X133720524Y-81797057D01*
X133720524Y-81797057D02*
X133720524Y-81987533D01*
X133720524Y-81987533D02*
X133758619Y-82139914D01*
X133758619Y-82139914D02*
X133796714Y-82216104D01*
X133796714Y-82216104D02*
X133834809Y-82254200D01*
X133834809Y-82254200D02*
X133911000Y-82292295D01*
X133911000Y-82292295D02*
X133987190Y-82292295D01*
X133987190Y-82292295D02*
X134063381Y-82254200D01*
X134063381Y-82254200D02*
X134101476Y-82216104D01*
X134101476Y-82216104D02*
X134139571Y-82139914D01*
X134139571Y-82139914D02*
X134177667Y-81987533D01*
X134177667Y-81987533D02*
X134177667Y-81797057D01*
X134177667Y-81797057D02*
X134139571Y-81644676D01*
X134139571Y-81644676D02*
X134101476Y-81568485D01*
X134101476Y-81568485D02*
X134063381Y-81530390D01*
X134063381Y-81530390D02*
X133987190Y-81492295D01*
X132958619Y-82292295D02*
X133415762Y-82292295D01*
X133187190Y-82292295D02*
X133187190Y-81492295D01*
X133187190Y-81492295D02*
X133263381Y-81606580D01*
X133263381Y-81606580D02*
X133339571Y-81682771D01*
X133339571Y-81682771D02*
X133415762Y-81720866D01*
X132463380Y-81492295D02*
X132387190Y-81492295D01*
X132387190Y-81492295D02*
X132310999Y-81530390D01*
X132310999Y-81530390D02*
X132272904Y-81568485D01*
X132272904Y-81568485D02*
X132234809Y-81644676D01*
X132234809Y-81644676D02*
X132196714Y-81797057D01*
X132196714Y-81797057D02*
X132196714Y-81987533D01*
X132196714Y-81987533D02*
X132234809Y-82139914D01*
X132234809Y-82139914D02*
X132272904Y-82216104D01*
X132272904Y-82216104D02*
X132310999Y-82254200D01*
X132310999Y-82254200D02*
X132387190Y-82292295D01*
X132387190Y-82292295D02*
X132463380Y-82292295D01*
X132463380Y-82292295D02*
X132539571Y-82254200D01*
X132539571Y-82254200D02*
X132577666Y-82216104D01*
X132577666Y-82216104D02*
X132615761Y-82139914D01*
X132615761Y-82139914D02*
X132653857Y-81987533D01*
X132653857Y-81987533D02*
X132653857Y-81797057D01*
X132653857Y-81797057D02*
X132615761Y-81644676D01*
X132615761Y-81644676D02*
X132577666Y-81568485D01*
X132577666Y-81568485D02*
X132539571Y-81530390D01*
X132539571Y-81530390D02*
X132463380Y-81492295D01*
X122798523Y-61210390D02*
X122874713Y-61172295D01*
X122874713Y-61172295D02*
X122988999Y-61172295D01*
X122988999Y-61172295D02*
X123103285Y-61210390D01*
X123103285Y-61210390D02*
X123179475Y-61286580D01*
X123179475Y-61286580D02*
X123217570Y-61362771D01*
X123217570Y-61362771D02*
X123255666Y-61515152D01*
X123255666Y-61515152D02*
X123255666Y-61629438D01*
X123255666Y-61629438D02*
X123217570Y-61781819D01*
X123217570Y-61781819D02*
X123179475Y-61858009D01*
X123179475Y-61858009D02*
X123103285Y-61934200D01*
X123103285Y-61934200D02*
X122988999Y-61972295D01*
X122988999Y-61972295D02*
X122912808Y-61972295D01*
X122912808Y-61972295D02*
X122798523Y-61934200D01*
X122798523Y-61934200D02*
X122760427Y-61896104D01*
X122760427Y-61896104D02*
X122760427Y-61629438D01*
X122760427Y-61629438D02*
X122912808Y-61629438D01*
X122417570Y-61972295D02*
X122417570Y-61172295D01*
X122417570Y-61172295D02*
X121960427Y-61972295D01*
X121960427Y-61972295D02*
X121960427Y-61172295D01*
X121579475Y-61972295D02*
X121579475Y-61172295D01*
X121579475Y-61172295D02*
X121388999Y-61172295D01*
X121388999Y-61172295D02*
X121274713Y-61210390D01*
X121274713Y-61210390D02*
X121198523Y-61286580D01*
X121198523Y-61286580D02*
X121160428Y-61362771D01*
X121160428Y-61362771D02*
X121122332Y-61515152D01*
X121122332Y-61515152D02*
X121122332Y-61629438D01*
X121122332Y-61629438D02*
X121160428Y-61781819D01*
X121160428Y-61781819D02*
X121198523Y-61858009D01*
X121198523Y-61858009D02*
X121274713Y-61934200D01*
X121274713Y-61934200D02*
X121388999Y-61972295D01*
X121388999Y-61972295D02*
X121579475Y-61972295D01*
X133720524Y-79752295D02*
X134177667Y-79752295D01*
X133949095Y-79752295D02*
X133949095Y-78952295D01*
X133949095Y-78952295D02*
X134025286Y-79066580D01*
X134025286Y-79066580D02*
X134101476Y-79142771D01*
X134101476Y-79142771D02*
X134177667Y-79180866D01*
X132958619Y-79752295D02*
X133415762Y-79752295D01*
X133187190Y-79752295D02*
X133187190Y-78952295D01*
X133187190Y-78952295D02*
X133263381Y-79066580D01*
X133263381Y-79066580D02*
X133339571Y-79142771D01*
X133339571Y-79142771D02*
X133415762Y-79180866D01*
X132196714Y-79752295D02*
X132653857Y-79752295D01*
X132425285Y-79752295D02*
X132425285Y-78952295D01*
X132425285Y-78952295D02*
X132501476Y-79066580D01*
X132501476Y-79066580D02*
X132577666Y-79142771D01*
X132577666Y-79142771D02*
X132653857Y-79180866D01*
X134253857Y-63712295D02*
X133987190Y-64512295D01*
X133987190Y-64512295D02*
X133720524Y-63712295D01*
X132996714Y-64436104D02*
X133034810Y-64474200D01*
X133034810Y-64474200D02*
X133149095Y-64512295D01*
X133149095Y-64512295D02*
X133225286Y-64512295D01*
X133225286Y-64512295D02*
X133339572Y-64474200D01*
X133339572Y-64474200D02*
X133415762Y-64398009D01*
X133415762Y-64398009D02*
X133453857Y-64321819D01*
X133453857Y-64321819D02*
X133491953Y-64169438D01*
X133491953Y-64169438D02*
X133491953Y-64055152D01*
X133491953Y-64055152D02*
X133453857Y-63902771D01*
X133453857Y-63902771D02*
X133415762Y-63826580D01*
X133415762Y-63826580D02*
X133339572Y-63750390D01*
X133339572Y-63750390D02*
X133225286Y-63712295D01*
X133225286Y-63712295D02*
X133149095Y-63712295D01*
X133149095Y-63712295D02*
X133034810Y-63750390D01*
X133034810Y-63750390D02*
X132996714Y-63788485D01*
X132196714Y-64436104D02*
X132234810Y-64474200D01*
X132234810Y-64474200D02*
X132349095Y-64512295D01*
X132349095Y-64512295D02*
X132425286Y-64512295D01*
X132425286Y-64512295D02*
X132539572Y-64474200D01*
X132539572Y-64474200D02*
X132615762Y-64398009D01*
X132615762Y-64398009D02*
X132653857Y-64321819D01*
X132653857Y-64321819D02*
X132691953Y-64169438D01*
X132691953Y-64169438D02*
X132691953Y-64055152D01*
X132691953Y-64055152D02*
X132653857Y-63902771D01*
X132653857Y-63902771D02*
X132615762Y-63826580D01*
X132615762Y-63826580D02*
X132539572Y-63750390D01*
X132539572Y-63750390D02*
X132425286Y-63712295D01*
X132425286Y-63712295D02*
X132349095Y-63712295D01*
X132349095Y-63712295D02*
X132234810Y-63750390D01*
X132234810Y-63750390D02*
X132196714Y-63788485D01*
X122912809Y-71362295D02*
X122836619Y-71362295D01*
X122836619Y-71362295D02*
X122760428Y-71400390D01*
X122760428Y-71400390D02*
X122722333Y-71438485D01*
X122722333Y-71438485D02*
X122684238Y-71514676D01*
X122684238Y-71514676D02*
X122646143Y-71667057D01*
X122646143Y-71667057D02*
X122646143Y-71857533D01*
X122646143Y-71857533D02*
X122684238Y-72009914D01*
X122684238Y-72009914D02*
X122722333Y-72086104D01*
X122722333Y-72086104D02*
X122760428Y-72124200D01*
X122760428Y-72124200D02*
X122836619Y-72162295D01*
X122836619Y-72162295D02*
X122912809Y-72162295D01*
X122912809Y-72162295D02*
X122989000Y-72124200D01*
X122989000Y-72124200D02*
X123027095Y-72086104D01*
X123027095Y-72086104D02*
X123065190Y-72009914D01*
X123065190Y-72009914D02*
X123103286Y-71857533D01*
X123103286Y-71857533D02*
X123103286Y-71667057D01*
X123103286Y-71667057D02*
X123065190Y-71514676D01*
X123065190Y-71514676D02*
X123027095Y-71438485D01*
X123027095Y-71438485D02*
X122989000Y-71400390D01*
X122989000Y-71400390D02*
X122912809Y-71362295D01*
X122341381Y-71438485D02*
X122303285Y-71400390D01*
X122303285Y-71400390D02*
X122227095Y-71362295D01*
X122227095Y-71362295D02*
X122036619Y-71362295D01*
X122036619Y-71362295D02*
X121960428Y-71400390D01*
X121960428Y-71400390D02*
X121922333Y-71438485D01*
X121922333Y-71438485D02*
X121884238Y-71514676D01*
X121884238Y-71514676D02*
X121884238Y-71590866D01*
X121884238Y-71590866D02*
X121922333Y-71705152D01*
X121922333Y-71705152D02*
X122379476Y-72162295D01*
X122379476Y-72162295D02*
X121884238Y-72162295D01*
X121579476Y-71438485D02*
X121541380Y-71400390D01*
X121541380Y-71400390D02*
X121465190Y-71362295D01*
X121465190Y-71362295D02*
X121274714Y-71362295D01*
X121274714Y-71362295D02*
X121198523Y-71400390D01*
X121198523Y-71400390D02*
X121160428Y-71438485D01*
X121160428Y-71438485D02*
X121122333Y-71514676D01*
X121122333Y-71514676D02*
X121122333Y-71590866D01*
X121122333Y-71590866D02*
X121160428Y-71705152D01*
X121160428Y-71705152D02*
X121617571Y-72162295D01*
X121617571Y-72162295D02*
X121122333Y-72162295D01*
X122912809Y-66252295D02*
X122836619Y-66252295D01*
X122836619Y-66252295D02*
X122760428Y-66290390D01*
X122760428Y-66290390D02*
X122722333Y-66328485D01*
X122722333Y-66328485D02*
X122684238Y-66404676D01*
X122684238Y-66404676D02*
X122646143Y-66557057D01*
X122646143Y-66557057D02*
X122646143Y-66747533D01*
X122646143Y-66747533D02*
X122684238Y-66899914D01*
X122684238Y-66899914D02*
X122722333Y-66976104D01*
X122722333Y-66976104D02*
X122760428Y-67014200D01*
X122760428Y-67014200D02*
X122836619Y-67052295D01*
X122836619Y-67052295D02*
X122912809Y-67052295D01*
X122912809Y-67052295D02*
X122989000Y-67014200D01*
X122989000Y-67014200D02*
X123027095Y-66976104D01*
X123027095Y-66976104D02*
X123065190Y-66899914D01*
X123065190Y-66899914D02*
X123103286Y-66747533D01*
X123103286Y-66747533D02*
X123103286Y-66557057D01*
X123103286Y-66557057D02*
X123065190Y-66404676D01*
X123065190Y-66404676D02*
X123027095Y-66328485D01*
X123027095Y-66328485D02*
X122989000Y-66290390D01*
X122989000Y-66290390D02*
X122912809Y-66252295D01*
X121884238Y-67052295D02*
X122341381Y-67052295D01*
X122112809Y-67052295D02*
X122112809Y-66252295D01*
X122112809Y-66252295D02*
X122189000Y-66366580D01*
X122189000Y-66366580D02*
X122265190Y-66442771D01*
X122265190Y-66442771D02*
X122341381Y-66480866D01*
X121617571Y-66252295D02*
X121084237Y-66252295D01*
X121084237Y-66252295D02*
X121427095Y-67052295D01*
X133676094Y-61972295D02*
X133942761Y-61591342D01*
X134133237Y-61972295D02*
X134133237Y-61172295D01*
X134133237Y-61172295D02*
X133828475Y-61172295D01*
X133828475Y-61172295D02*
X133752285Y-61210390D01*
X133752285Y-61210390D02*
X133714190Y-61248485D01*
X133714190Y-61248485D02*
X133676094Y-61324676D01*
X133676094Y-61324676D02*
X133676094Y-61438961D01*
X133676094Y-61438961D02*
X133714190Y-61515152D01*
X133714190Y-61515152D02*
X133752285Y-61553247D01*
X133752285Y-61553247D02*
X133828475Y-61591342D01*
X133828475Y-61591342D02*
X134133237Y-61591342D01*
X133371333Y-61934200D02*
X133257047Y-61972295D01*
X133257047Y-61972295D02*
X133066571Y-61972295D01*
X133066571Y-61972295D02*
X132990380Y-61934200D01*
X132990380Y-61934200D02*
X132952285Y-61896104D01*
X132952285Y-61896104D02*
X132914190Y-61819914D01*
X132914190Y-61819914D02*
X132914190Y-61743723D01*
X132914190Y-61743723D02*
X132952285Y-61667533D01*
X132952285Y-61667533D02*
X132990380Y-61629438D01*
X132990380Y-61629438D02*
X133066571Y-61591342D01*
X133066571Y-61591342D02*
X133218952Y-61553247D01*
X133218952Y-61553247D02*
X133295142Y-61515152D01*
X133295142Y-61515152D02*
X133333237Y-61477057D01*
X133333237Y-61477057D02*
X133371333Y-61400866D01*
X133371333Y-61400866D02*
X133371333Y-61324676D01*
X133371333Y-61324676D02*
X133333237Y-61248485D01*
X133333237Y-61248485D02*
X133295142Y-61210390D01*
X133295142Y-61210390D02*
X133218952Y-61172295D01*
X133218952Y-61172295D02*
X133028475Y-61172295D01*
X133028475Y-61172295D02*
X132914190Y-61210390D01*
X132685618Y-61172295D02*
X132228475Y-61172295D01*
X132457047Y-61972295D02*
X132457047Y-61172295D01*
X122646143Y-82292295D02*
X123103286Y-82292295D01*
X122874714Y-82292295D02*
X122874714Y-81492295D01*
X122874714Y-81492295D02*
X122950905Y-81606580D01*
X122950905Y-81606580D02*
X123027095Y-81682771D01*
X123027095Y-81682771D02*
X123103286Y-81720866D01*
X122150904Y-81492295D02*
X122074714Y-81492295D01*
X122074714Y-81492295D02*
X121998523Y-81530390D01*
X121998523Y-81530390D02*
X121960428Y-81568485D01*
X121960428Y-81568485D02*
X121922333Y-81644676D01*
X121922333Y-81644676D02*
X121884238Y-81797057D01*
X121884238Y-81797057D02*
X121884238Y-81987533D01*
X121884238Y-81987533D02*
X121922333Y-82139914D01*
X121922333Y-82139914D02*
X121960428Y-82216104D01*
X121960428Y-82216104D02*
X121998523Y-82254200D01*
X121998523Y-82254200D02*
X122074714Y-82292295D01*
X122074714Y-82292295D02*
X122150904Y-82292295D01*
X122150904Y-82292295D02*
X122227095Y-82254200D01*
X122227095Y-82254200D02*
X122265190Y-82216104D01*
X122265190Y-82216104D02*
X122303285Y-82139914D01*
X122303285Y-82139914D02*
X122341381Y-81987533D01*
X122341381Y-81987533D02*
X122341381Y-81797057D01*
X122341381Y-81797057D02*
X122303285Y-81644676D01*
X122303285Y-81644676D02*
X122265190Y-81568485D01*
X122265190Y-81568485D02*
X122227095Y-81530390D01*
X122227095Y-81530390D02*
X122150904Y-81492295D01*
X121198523Y-81758961D02*
X121198523Y-82292295D01*
X121388999Y-81454200D02*
X121579476Y-82025628D01*
X121579476Y-82025628D02*
X121084237Y-82025628D01*
X135552380Y-55362295D02*
X135819047Y-54981342D01*
X136009523Y-55362295D02*
X136009523Y-54562295D01*
X136009523Y-54562295D02*
X135704761Y-54562295D01*
X135704761Y-54562295D02*
X135628571Y-54600390D01*
X135628571Y-54600390D02*
X135590476Y-54638485D01*
X135590476Y-54638485D02*
X135552380Y-54714676D01*
X135552380Y-54714676D02*
X135552380Y-54828961D01*
X135552380Y-54828961D02*
X135590476Y-54905152D01*
X135590476Y-54905152D02*
X135628571Y-54943247D01*
X135628571Y-54943247D02*
X135704761Y-54981342D01*
X135704761Y-54981342D02*
X136009523Y-54981342D01*
X135247619Y-55133723D02*
X134866666Y-55133723D01*
X135323809Y-55362295D02*
X135057142Y-54562295D01*
X135057142Y-54562295D02*
X134790476Y-55362295D01*
X134600000Y-54562295D02*
X134409524Y-55362295D01*
X134409524Y-55362295D02*
X134257143Y-54790866D01*
X134257143Y-54790866D02*
X134104762Y-55362295D01*
X134104762Y-55362295D02*
X133914286Y-54562295D01*
X121049999Y-54562295D02*
X120973809Y-54562295D01*
X120973809Y-54562295D02*
X120897618Y-54600390D01*
X120897618Y-54600390D02*
X120859523Y-54638485D01*
X120859523Y-54638485D02*
X120821428Y-54714676D01*
X120821428Y-54714676D02*
X120783333Y-54867057D01*
X120783333Y-54867057D02*
X120783333Y-55057533D01*
X120783333Y-55057533D02*
X120821428Y-55209914D01*
X120821428Y-55209914D02*
X120859523Y-55286104D01*
X120859523Y-55286104D02*
X120897618Y-55324200D01*
X120897618Y-55324200D02*
X120973809Y-55362295D01*
X120973809Y-55362295D02*
X121049999Y-55362295D01*
X121049999Y-55362295D02*
X121126190Y-55324200D01*
X121126190Y-55324200D02*
X121164285Y-55286104D01*
X121164285Y-55286104D02*
X121202380Y-55209914D01*
X121202380Y-55209914D02*
X121240476Y-55057533D01*
X121240476Y-55057533D02*
X121240476Y-54867057D01*
X121240476Y-54867057D02*
X121202380Y-54714676D01*
X121202380Y-54714676D02*
X121164285Y-54638485D01*
X121164285Y-54638485D02*
X121126190Y-54600390D01*
X121126190Y-54600390D02*
X121049999Y-54562295D01*
X120288094Y-54562295D02*
X120211904Y-54562295D01*
X120211904Y-54562295D02*
X120135713Y-54600390D01*
X120135713Y-54600390D02*
X120097618Y-54638485D01*
X120097618Y-54638485D02*
X120059523Y-54714676D01*
X120059523Y-54714676D02*
X120021428Y-54867057D01*
X120021428Y-54867057D02*
X120021428Y-55057533D01*
X120021428Y-55057533D02*
X120059523Y-55209914D01*
X120059523Y-55209914D02*
X120097618Y-55286104D01*
X120097618Y-55286104D02*
X120135713Y-55324200D01*
X120135713Y-55324200D02*
X120211904Y-55362295D01*
X120211904Y-55362295D02*
X120288094Y-55362295D01*
X120288094Y-55362295D02*
X120364285Y-55324200D01*
X120364285Y-55324200D02*
X120402380Y-55286104D01*
X120402380Y-55286104D02*
X120440475Y-55209914D01*
X120440475Y-55209914D02*
X120478571Y-55057533D01*
X120478571Y-55057533D02*
X120478571Y-54867057D01*
X120478571Y-54867057D02*
X120440475Y-54714676D01*
X120440475Y-54714676D02*
X120402380Y-54638485D01*
X120402380Y-54638485D02*
X120364285Y-54600390D01*
X120364285Y-54600390D02*
X120288094Y-54562295D01*
X119335713Y-54562295D02*
X119488094Y-54562295D01*
X119488094Y-54562295D02*
X119564285Y-54600390D01*
X119564285Y-54600390D02*
X119602380Y-54638485D01*
X119602380Y-54638485D02*
X119678570Y-54752771D01*
X119678570Y-54752771D02*
X119716666Y-54905152D01*
X119716666Y-54905152D02*
X119716666Y-55209914D01*
X119716666Y-55209914D02*
X119678570Y-55286104D01*
X119678570Y-55286104D02*
X119640475Y-55324200D01*
X119640475Y-55324200D02*
X119564285Y-55362295D01*
X119564285Y-55362295D02*
X119411904Y-55362295D01*
X119411904Y-55362295D02*
X119335713Y-55324200D01*
X119335713Y-55324200D02*
X119297618Y-55286104D01*
X119297618Y-55286104D02*
X119259523Y-55209914D01*
X119259523Y-55209914D02*
X119259523Y-55019438D01*
X119259523Y-55019438D02*
X119297618Y-54943247D01*
X119297618Y-54943247D02*
X119335713Y-54905152D01*
X119335713Y-54905152D02*
X119411904Y-54867057D01*
X119411904Y-54867057D02*
X119564285Y-54867057D01*
X119564285Y-54867057D02*
X119640475Y-54905152D01*
X119640475Y-54905152D02*
X119678570Y-54943247D01*
X119678570Y-54943247D02*
X119716666Y-55019438D01*
X133987190Y-66252295D02*
X133911000Y-66252295D01*
X133911000Y-66252295D02*
X133834809Y-66290390D01*
X133834809Y-66290390D02*
X133796714Y-66328485D01*
X133796714Y-66328485D02*
X133758619Y-66404676D01*
X133758619Y-66404676D02*
X133720524Y-66557057D01*
X133720524Y-66557057D02*
X133720524Y-66747533D01*
X133720524Y-66747533D02*
X133758619Y-66899914D01*
X133758619Y-66899914D02*
X133796714Y-66976104D01*
X133796714Y-66976104D02*
X133834809Y-67014200D01*
X133834809Y-67014200D02*
X133911000Y-67052295D01*
X133911000Y-67052295D02*
X133987190Y-67052295D01*
X133987190Y-67052295D02*
X134063381Y-67014200D01*
X134063381Y-67014200D02*
X134101476Y-66976104D01*
X134101476Y-66976104D02*
X134139571Y-66899914D01*
X134139571Y-66899914D02*
X134177667Y-66747533D01*
X134177667Y-66747533D02*
X134177667Y-66557057D01*
X134177667Y-66557057D02*
X134139571Y-66404676D01*
X134139571Y-66404676D02*
X134101476Y-66328485D01*
X134101476Y-66328485D02*
X134063381Y-66290390D01*
X134063381Y-66290390D02*
X133987190Y-66252295D01*
X133453857Y-66252295D02*
X132958619Y-66252295D01*
X132958619Y-66252295D02*
X133225285Y-66557057D01*
X133225285Y-66557057D02*
X133111000Y-66557057D01*
X133111000Y-66557057D02*
X133034809Y-66595152D01*
X133034809Y-66595152D02*
X132996714Y-66633247D01*
X132996714Y-66633247D02*
X132958619Y-66709438D01*
X132958619Y-66709438D02*
X132958619Y-66899914D01*
X132958619Y-66899914D02*
X132996714Y-66976104D01*
X132996714Y-66976104D02*
X133034809Y-67014200D01*
X133034809Y-67014200D02*
X133111000Y-67052295D01*
X133111000Y-67052295D02*
X133339571Y-67052295D01*
X133339571Y-67052295D02*
X133415762Y-67014200D01*
X133415762Y-67014200D02*
X133453857Y-66976104D01*
X132196714Y-67052295D02*
X132653857Y-67052295D01*
X132425285Y-67052295D02*
X132425285Y-66252295D01*
X132425285Y-66252295D02*
X132501476Y-66366580D01*
X132501476Y-66366580D02*
X132577666Y-66442771D01*
X132577666Y-66442771D02*
X132653857Y-66480866D01*
X122912808Y-58562295D02*
X122836618Y-58562295D01*
X122836618Y-58562295D02*
X122760427Y-58600390D01*
X122760427Y-58600390D02*
X122722332Y-58638485D01*
X122722332Y-58638485D02*
X122684237Y-58714676D01*
X122684237Y-58714676D02*
X122646142Y-58867057D01*
X122646142Y-58867057D02*
X122646142Y-59057533D01*
X122646142Y-59057533D02*
X122684237Y-59209914D01*
X122684237Y-59209914D02*
X122722332Y-59286104D01*
X122722332Y-59286104D02*
X122760427Y-59324200D01*
X122760427Y-59324200D02*
X122836618Y-59362295D01*
X122836618Y-59362295D02*
X122912808Y-59362295D01*
X122912808Y-59362295D02*
X122988999Y-59324200D01*
X122988999Y-59324200D02*
X123027094Y-59286104D01*
X123027094Y-59286104D02*
X123065189Y-59209914D01*
X123065189Y-59209914D02*
X123103285Y-59057533D01*
X123103285Y-59057533D02*
X123103285Y-58867057D01*
X123103285Y-58867057D02*
X123065189Y-58714676D01*
X123065189Y-58714676D02*
X123027094Y-58638485D01*
X123027094Y-58638485D02*
X122988999Y-58600390D01*
X122988999Y-58600390D02*
X122912808Y-58562295D01*
X122150903Y-58562295D02*
X122074713Y-58562295D01*
X122074713Y-58562295D02*
X121998522Y-58600390D01*
X121998522Y-58600390D02*
X121960427Y-58638485D01*
X121960427Y-58638485D02*
X121922332Y-58714676D01*
X121922332Y-58714676D02*
X121884237Y-58867057D01*
X121884237Y-58867057D02*
X121884237Y-59057533D01*
X121884237Y-59057533D02*
X121922332Y-59209914D01*
X121922332Y-59209914D02*
X121960427Y-59286104D01*
X121960427Y-59286104D02*
X121998522Y-59324200D01*
X121998522Y-59324200D02*
X122074713Y-59362295D01*
X122074713Y-59362295D02*
X122150903Y-59362295D01*
X122150903Y-59362295D02*
X122227094Y-59324200D01*
X122227094Y-59324200D02*
X122265189Y-59286104D01*
X122265189Y-59286104D02*
X122303284Y-59209914D01*
X122303284Y-59209914D02*
X122341380Y-59057533D01*
X122341380Y-59057533D02*
X122341380Y-58867057D01*
X122341380Y-58867057D02*
X122303284Y-58714676D01*
X122303284Y-58714676D02*
X122265189Y-58638485D01*
X122265189Y-58638485D02*
X122227094Y-58600390D01*
X122227094Y-58600390D02*
X122150903Y-58562295D01*
X121427094Y-58905152D02*
X121503284Y-58867057D01*
X121503284Y-58867057D02*
X121541379Y-58828961D01*
X121541379Y-58828961D02*
X121579475Y-58752771D01*
X121579475Y-58752771D02*
X121579475Y-58714676D01*
X121579475Y-58714676D02*
X121541379Y-58638485D01*
X121541379Y-58638485D02*
X121503284Y-58600390D01*
X121503284Y-58600390D02*
X121427094Y-58562295D01*
X121427094Y-58562295D02*
X121274713Y-58562295D01*
X121274713Y-58562295D02*
X121198522Y-58600390D01*
X121198522Y-58600390D02*
X121160427Y-58638485D01*
X121160427Y-58638485D02*
X121122332Y-58714676D01*
X121122332Y-58714676D02*
X121122332Y-58752771D01*
X121122332Y-58752771D02*
X121160427Y-58828961D01*
X121160427Y-58828961D02*
X121198522Y-58867057D01*
X121198522Y-58867057D02*
X121274713Y-58905152D01*
X121274713Y-58905152D02*
X121427094Y-58905152D01*
X121427094Y-58905152D02*
X121503284Y-58943247D01*
X121503284Y-58943247D02*
X121541379Y-58981342D01*
X121541379Y-58981342D02*
X121579475Y-59057533D01*
X121579475Y-59057533D02*
X121579475Y-59209914D01*
X121579475Y-59209914D02*
X121541379Y-59286104D01*
X121541379Y-59286104D02*
X121503284Y-59324200D01*
X121503284Y-59324200D02*
X121427094Y-59362295D01*
X121427094Y-59362295D02*
X121274713Y-59362295D01*
X121274713Y-59362295D02*
X121198522Y-59324200D01*
X121198522Y-59324200D02*
X121160427Y-59286104D01*
X121160427Y-59286104D02*
X121122332Y-59209914D01*
X121122332Y-59209914D02*
X121122332Y-59057533D01*
X121122332Y-59057533D02*
X121160427Y-58981342D01*
X121160427Y-58981342D02*
X121198522Y-58943247D01*
X121198522Y-58943247D02*
X121274713Y-58905152D01*
X122646142Y-77212295D02*
X123103285Y-77212295D01*
X122874713Y-77212295D02*
X122874713Y-76412295D01*
X122874713Y-76412295D02*
X122950904Y-76526580D01*
X122950904Y-76526580D02*
X123027094Y-76602771D01*
X123027094Y-76602771D02*
X123103285Y-76640866D01*
X122150903Y-76412295D02*
X122074713Y-76412295D01*
X122074713Y-76412295D02*
X121998522Y-76450390D01*
X121998522Y-76450390D02*
X121960427Y-76488485D01*
X121960427Y-76488485D02*
X121922332Y-76564676D01*
X121922332Y-76564676D02*
X121884237Y-76717057D01*
X121884237Y-76717057D02*
X121884237Y-76907533D01*
X121884237Y-76907533D02*
X121922332Y-77059914D01*
X121922332Y-77059914D02*
X121960427Y-77136104D01*
X121960427Y-77136104D02*
X121998522Y-77174200D01*
X121998522Y-77174200D02*
X122074713Y-77212295D01*
X122074713Y-77212295D02*
X122150903Y-77212295D01*
X122150903Y-77212295D02*
X122227094Y-77174200D01*
X122227094Y-77174200D02*
X122265189Y-77136104D01*
X122265189Y-77136104D02*
X122303284Y-77059914D01*
X122303284Y-77059914D02*
X122341380Y-76907533D01*
X122341380Y-76907533D02*
X122341380Y-76717057D01*
X122341380Y-76717057D02*
X122303284Y-76564676D01*
X122303284Y-76564676D02*
X122265189Y-76488485D01*
X122265189Y-76488485D02*
X122227094Y-76450390D01*
X122227094Y-76450390D02*
X122150903Y-76412295D01*
X121388998Y-76412295D02*
X121312808Y-76412295D01*
X121312808Y-76412295D02*
X121236617Y-76450390D01*
X121236617Y-76450390D02*
X121198522Y-76488485D01*
X121198522Y-76488485D02*
X121160427Y-76564676D01*
X121160427Y-76564676D02*
X121122332Y-76717057D01*
X121122332Y-76717057D02*
X121122332Y-76907533D01*
X121122332Y-76907533D02*
X121160427Y-77059914D01*
X121160427Y-77059914D02*
X121198522Y-77136104D01*
X121198522Y-77136104D02*
X121236617Y-77174200D01*
X121236617Y-77174200D02*
X121312808Y-77212295D01*
X121312808Y-77212295D02*
X121388998Y-77212295D01*
X121388998Y-77212295D02*
X121465189Y-77174200D01*
X121465189Y-77174200D02*
X121503284Y-77136104D01*
X121503284Y-77136104D02*
X121541379Y-77059914D01*
X121541379Y-77059914D02*
X121579475Y-76907533D01*
X121579475Y-76907533D02*
X121579475Y-76717057D01*
X121579475Y-76717057D02*
X121541379Y-76564676D01*
X121541379Y-76564676D02*
X121503284Y-76488485D01*
X121503284Y-76488485D02*
X121465189Y-76450390D01*
X121465189Y-76450390D02*
X121388998Y-76412295D01*
X122912809Y-68862294D02*
X122836619Y-68862294D01*
X122836619Y-68862294D02*
X122760428Y-68900389D01*
X122760428Y-68900389D02*
X122722333Y-68938484D01*
X122722333Y-68938484D02*
X122684238Y-69014675D01*
X122684238Y-69014675D02*
X122646143Y-69167056D01*
X122646143Y-69167056D02*
X122646143Y-69357532D01*
X122646143Y-69357532D02*
X122684238Y-69509913D01*
X122684238Y-69509913D02*
X122722333Y-69586103D01*
X122722333Y-69586103D02*
X122760428Y-69624199D01*
X122760428Y-69624199D02*
X122836619Y-69662294D01*
X122836619Y-69662294D02*
X122912809Y-69662294D01*
X122912809Y-69662294D02*
X122989000Y-69624199D01*
X122989000Y-69624199D02*
X123027095Y-69586103D01*
X123027095Y-69586103D02*
X123065190Y-69509913D01*
X123065190Y-69509913D02*
X123103286Y-69357532D01*
X123103286Y-69357532D02*
X123103286Y-69167056D01*
X123103286Y-69167056D02*
X123065190Y-69014675D01*
X123065190Y-69014675D02*
X123027095Y-68938484D01*
X123027095Y-68938484D02*
X122989000Y-68900389D01*
X122989000Y-68900389D02*
X122912809Y-68862294D01*
X122341381Y-68938484D02*
X122303285Y-68900389D01*
X122303285Y-68900389D02*
X122227095Y-68862294D01*
X122227095Y-68862294D02*
X122036619Y-68862294D01*
X122036619Y-68862294D02*
X121960428Y-68900389D01*
X121960428Y-68900389D02*
X121922333Y-68938484D01*
X121922333Y-68938484D02*
X121884238Y-69014675D01*
X121884238Y-69014675D02*
X121884238Y-69090865D01*
X121884238Y-69090865D02*
X121922333Y-69205151D01*
X121922333Y-69205151D02*
X122379476Y-69662294D01*
X122379476Y-69662294D02*
X121884238Y-69662294D01*
X121388999Y-68862294D02*
X121312809Y-68862294D01*
X121312809Y-68862294D02*
X121236618Y-68900389D01*
X121236618Y-68900389D02*
X121198523Y-68938484D01*
X121198523Y-68938484D02*
X121160428Y-69014675D01*
X121160428Y-69014675D02*
X121122333Y-69167056D01*
X121122333Y-69167056D02*
X121122333Y-69357532D01*
X121122333Y-69357532D02*
X121160428Y-69509913D01*
X121160428Y-69509913D02*
X121198523Y-69586103D01*
X121198523Y-69586103D02*
X121236618Y-69624199D01*
X121236618Y-69624199D02*
X121312809Y-69662294D01*
X121312809Y-69662294D02*
X121388999Y-69662294D01*
X121388999Y-69662294D02*
X121465190Y-69624199D01*
X121465190Y-69624199D02*
X121503285Y-69586103D01*
X121503285Y-69586103D02*
X121541380Y-69509913D01*
X121541380Y-69509913D02*
X121579476Y-69357532D01*
X121579476Y-69357532D02*
X121579476Y-69167056D01*
X121579476Y-69167056D02*
X121541380Y-69014675D01*
X121541380Y-69014675D02*
X121503285Y-68938484D01*
X121503285Y-68938484D02*
X121465190Y-68900389D01*
X121465190Y-68900389D02*
X121388999Y-68862294D01*
X133714191Y-58670390D02*
X133790381Y-58632295D01*
X133790381Y-58632295D02*
X133904667Y-58632295D01*
X133904667Y-58632295D02*
X134018953Y-58670390D01*
X134018953Y-58670390D02*
X134095143Y-58746580D01*
X134095143Y-58746580D02*
X134133238Y-58822771D01*
X134133238Y-58822771D02*
X134171334Y-58975152D01*
X134171334Y-58975152D02*
X134171334Y-59089438D01*
X134171334Y-59089438D02*
X134133238Y-59241819D01*
X134133238Y-59241819D02*
X134095143Y-59318009D01*
X134095143Y-59318009D02*
X134018953Y-59394200D01*
X134018953Y-59394200D02*
X133904667Y-59432295D01*
X133904667Y-59432295D02*
X133828476Y-59432295D01*
X133828476Y-59432295D02*
X133714191Y-59394200D01*
X133714191Y-59394200D02*
X133676095Y-59356104D01*
X133676095Y-59356104D02*
X133676095Y-59089438D01*
X133676095Y-59089438D02*
X133828476Y-59089438D01*
X133333238Y-59432295D02*
X133333238Y-58632295D01*
X133333238Y-58632295D02*
X132876095Y-59432295D01*
X132876095Y-59432295D02*
X132876095Y-58632295D01*
X132495143Y-59432295D02*
X132495143Y-58632295D01*
X132495143Y-58632295D02*
X132304667Y-58632295D01*
X132304667Y-58632295D02*
X132190381Y-58670390D01*
X132190381Y-58670390D02*
X132114191Y-58746580D01*
X132114191Y-58746580D02*
X132076096Y-58822771D01*
X132076096Y-58822771D02*
X132038000Y-58975152D01*
X132038000Y-58975152D02*
X132038000Y-59089438D01*
X132038000Y-59089438D02*
X132076096Y-59241819D01*
X132076096Y-59241819D02*
X132114191Y-59318009D01*
X132114191Y-59318009D02*
X132190381Y-59394200D01*
X132190381Y-59394200D02*
X132304667Y-59432295D01*
X132304667Y-59432295D02*
X132495143Y-59432295D01*
X133720524Y-74672295D02*
X134177667Y-74672295D01*
X133949095Y-74672295D02*
X133949095Y-73872295D01*
X133949095Y-73872295D02*
X134025286Y-73986580D01*
X134025286Y-73986580D02*
X134101476Y-74062771D01*
X134101476Y-74062771D02*
X134177667Y-74100866D01*
X132958619Y-74672295D02*
X133415762Y-74672295D01*
X133187190Y-74672295D02*
X133187190Y-73872295D01*
X133187190Y-73872295D02*
X133263381Y-73986580D01*
X133263381Y-73986580D02*
X133339571Y-74062771D01*
X133339571Y-74062771D02*
X133415762Y-74100866D01*
X132234809Y-73872295D02*
X132615761Y-73872295D01*
X132615761Y-73872295D02*
X132653857Y-74253247D01*
X132653857Y-74253247D02*
X132615761Y-74215152D01*
X132615761Y-74215152D02*
X132539571Y-74177057D01*
X132539571Y-74177057D02*
X132349095Y-74177057D01*
X132349095Y-74177057D02*
X132272904Y-74215152D01*
X132272904Y-74215152D02*
X132234809Y-74253247D01*
X132234809Y-74253247D02*
X132196714Y-74329438D01*
X132196714Y-74329438D02*
X132196714Y-74519914D01*
X132196714Y-74519914D02*
X132234809Y-74596104D01*
X132234809Y-74596104D02*
X132272904Y-74634200D01*
X132272904Y-74634200D02*
X132349095Y-74672295D01*
X132349095Y-74672295D02*
X132539571Y-74672295D01*
X132539571Y-74672295D02*
X132615761Y-74634200D01*
X132615761Y-74634200D02*
X132653857Y-74596104D01*
X48138094Y-98949819D02*
X48138094Y-97949819D01*
X47566666Y-98949819D02*
X47995237Y-98378390D01*
X47566666Y-97949819D02*
X48138094Y-98521247D01*
X46709523Y-97949819D02*
X46899999Y-97949819D01*
X46899999Y-97949819D02*
X46995237Y-97997438D01*
X46995237Y-97997438D02*
X47042856Y-98045057D01*
X47042856Y-98045057D02*
X47138094Y-98187914D01*
X47138094Y-98187914D02*
X47185713Y-98378390D01*
X47185713Y-98378390D02*
X47185713Y-98759342D01*
X47185713Y-98759342D02*
X47138094Y-98854580D01*
X47138094Y-98854580D02*
X47090475Y-98902200D01*
X47090475Y-98902200D02*
X46995237Y-98949819D01*
X46995237Y-98949819D02*
X46804761Y-98949819D01*
X46804761Y-98949819D02*
X46709523Y-98902200D01*
X46709523Y-98902200D02*
X46661904Y-98854580D01*
X46661904Y-98854580D02*
X46614285Y-98759342D01*
X46614285Y-98759342D02*
X46614285Y-98521247D01*
X46614285Y-98521247D02*
X46661904Y-98426009D01*
X46661904Y-98426009D02*
X46709523Y-98378390D01*
X46709523Y-98378390D02*
X46804761Y-98330771D01*
X46804761Y-98330771D02*
X46995237Y-98330771D01*
X46995237Y-98330771D02*
X47090475Y-98378390D01*
X47090475Y-98378390D02*
X47138094Y-98426009D01*
X47138094Y-98426009D02*
X47185713Y-98521247D01*
X48138094Y-58949819D02*
X48138094Y-57949819D01*
X47566666Y-58949819D02*
X47995237Y-58378390D01*
X47566666Y-57949819D02*
X48138094Y-58521247D01*
X46709523Y-58283152D02*
X46709523Y-58949819D01*
X46947618Y-57902200D02*
X47185713Y-58616485D01*
X47185713Y-58616485D02*
X46566666Y-58616485D01*
X28138094Y-112199819D02*
X28138094Y-111199819D01*
X27566666Y-112199819D02*
X27995237Y-111628390D01*
X27566666Y-111199819D02*
X28138094Y-111771247D01*
X27233332Y-111199819D02*
X26614285Y-111199819D01*
X26614285Y-111199819D02*
X26947618Y-111580771D01*
X26947618Y-111580771D02*
X26804761Y-111580771D01*
X26804761Y-111580771D02*
X26709523Y-111628390D01*
X26709523Y-111628390D02*
X26661904Y-111676009D01*
X26661904Y-111676009D02*
X26614285Y-111771247D01*
X26614285Y-111771247D02*
X26614285Y-112009342D01*
X26614285Y-112009342D02*
X26661904Y-112104580D01*
X26661904Y-112104580D02*
X26709523Y-112152200D01*
X26709523Y-112152200D02*
X26804761Y-112199819D01*
X26804761Y-112199819D02*
X27090475Y-112199819D01*
X27090475Y-112199819D02*
X27185713Y-112152200D01*
X27185713Y-112152200D02*
X27233332Y-112104580D01*
X68138094Y-53949819D02*
X68138094Y-52949819D01*
X67566666Y-53949819D02*
X67995237Y-53378390D01*
X67566666Y-52949819D02*
X68138094Y-53521247D01*
X67233332Y-52949819D02*
X66566666Y-52949819D01*
X66566666Y-52949819D02*
X66995237Y-53949819D01*
X68138094Y-73949819D02*
X68138094Y-72949819D01*
X67566666Y-73949819D02*
X67995237Y-73378390D01*
X67566666Y-72949819D02*
X68138094Y-73521247D01*
X66995237Y-73378390D02*
X67090475Y-73330771D01*
X67090475Y-73330771D02*
X67138094Y-73283152D01*
X67138094Y-73283152D02*
X67185713Y-73187914D01*
X67185713Y-73187914D02*
X67185713Y-73140295D01*
X67185713Y-73140295D02*
X67138094Y-73045057D01*
X67138094Y-73045057D02*
X67090475Y-72997438D01*
X67090475Y-72997438D02*
X66995237Y-72949819D01*
X66995237Y-72949819D02*
X66804761Y-72949819D01*
X66804761Y-72949819D02*
X66709523Y-72997438D01*
X66709523Y-72997438D02*
X66661904Y-73045057D01*
X66661904Y-73045057D02*
X66614285Y-73140295D01*
X66614285Y-73140295D02*
X66614285Y-73187914D01*
X66614285Y-73187914D02*
X66661904Y-73283152D01*
X66661904Y-73283152D02*
X66709523Y-73330771D01*
X66709523Y-73330771D02*
X66804761Y-73378390D01*
X66804761Y-73378390D02*
X66995237Y-73378390D01*
X66995237Y-73378390D02*
X67090475Y-73426009D01*
X67090475Y-73426009D02*
X67138094Y-73473628D01*
X67138094Y-73473628D02*
X67185713Y-73568866D01*
X67185713Y-73568866D02*
X67185713Y-73759342D01*
X67185713Y-73759342D02*
X67138094Y-73854580D01*
X67138094Y-73854580D02*
X67090475Y-73902200D01*
X67090475Y-73902200D02*
X66995237Y-73949819D01*
X66995237Y-73949819D02*
X66804761Y-73949819D01*
X66804761Y-73949819D02*
X66709523Y-73902200D01*
X66709523Y-73902200D02*
X66661904Y-73854580D01*
X66661904Y-73854580D02*
X66614285Y-73759342D01*
X66614285Y-73759342D02*
X66614285Y-73568866D01*
X66614285Y-73568866D02*
X66661904Y-73473628D01*
X66661904Y-73473628D02*
X66709523Y-73426009D01*
X66709523Y-73426009D02*
X66804761Y-73378390D01*
X108364285Y-61949819D02*
X108364285Y-60949819D01*
X107792857Y-61949819D02*
X108221428Y-61378390D01*
X107792857Y-60949819D02*
X108364285Y-61521247D01*
X106840476Y-61949819D02*
X107411904Y-61949819D01*
X107126190Y-61949819D02*
X107126190Y-60949819D01*
X107126190Y-60949819D02*
X107221428Y-61092676D01*
X107221428Y-61092676D02*
X107316666Y-61187914D01*
X107316666Y-61187914D02*
X107411904Y-61235533D01*
X106507142Y-60949819D02*
X105888095Y-60949819D01*
X105888095Y-60949819D02*
X106221428Y-61330771D01*
X106221428Y-61330771D02*
X106078571Y-61330771D01*
X106078571Y-61330771D02*
X105983333Y-61378390D01*
X105983333Y-61378390D02*
X105935714Y-61426009D01*
X105935714Y-61426009D02*
X105888095Y-61521247D01*
X105888095Y-61521247D02*
X105888095Y-61759342D01*
X105888095Y-61759342D02*
X105935714Y-61854580D01*
X105935714Y-61854580D02*
X105983333Y-61902200D01*
X105983333Y-61902200D02*
X106078571Y-61949819D01*
X106078571Y-61949819D02*
X106364285Y-61949819D01*
X106364285Y-61949819D02*
X106459523Y-61902200D01*
X106459523Y-61902200D02*
X106507142Y-61854580D01*
X28138094Y-92199819D02*
X28138094Y-91199819D01*
X27566666Y-92199819D02*
X27995237Y-91628390D01*
X27566666Y-91199819D02*
X28138094Y-91771247D01*
X27185713Y-91295057D02*
X27138094Y-91247438D01*
X27138094Y-91247438D02*
X27042856Y-91199819D01*
X27042856Y-91199819D02*
X26804761Y-91199819D01*
X26804761Y-91199819D02*
X26709523Y-91247438D01*
X26709523Y-91247438D02*
X26661904Y-91295057D01*
X26661904Y-91295057D02*
X26614285Y-91390295D01*
X26614285Y-91390295D02*
X26614285Y-91485533D01*
X26614285Y-91485533D02*
X26661904Y-91628390D01*
X26661904Y-91628390D02*
X27233332Y-92199819D01*
X27233332Y-92199819D02*
X26614285Y-92199819D01*
X88614285Y-78949819D02*
X88614285Y-77949819D01*
X88042857Y-78949819D02*
X88471428Y-78378390D01*
X88042857Y-77949819D02*
X88614285Y-78521247D01*
X87090476Y-78949819D02*
X87661904Y-78949819D01*
X87376190Y-78949819D02*
X87376190Y-77949819D01*
X87376190Y-77949819D02*
X87471428Y-78092676D01*
X87471428Y-78092676D02*
X87566666Y-78187914D01*
X87566666Y-78187914D02*
X87661904Y-78235533D01*
X86138095Y-78949819D02*
X86709523Y-78949819D01*
X86423809Y-78949819D02*
X86423809Y-77949819D01*
X86423809Y-77949819D02*
X86519047Y-78092676D01*
X86519047Y-78092676D02*
X86614285Y-78187914D01*
X86614285Y-78187914D02*
X86709523Y-78235533D01*
X108364285Y-81949819D02*
X108364285Y-80949819D01*
X107792857Y-81949819D02*
X108221428Y-81378390D01*
X107792857Y-80949819D02*
X108364285Y-81521247D01*
X106840476Y-81949819D02*
X107411904Y-81949819D01*
X107126190Y-81949819D02*
X107126190Y-80949819D01*
X107126190Y-80949819D02*
X107221428Y-81092676D01*
X107221428Y-81092676D02*
X107316666Y-81187914D01*
X107316666Y-81187914D02*
X107411904Y-81235533D01*
X105983333Y-81283152D02*
X105983333Y-81949819D01*
X106221428Y-80902200D02*
X106459523Y-81616485D01*
X106459523Y-81616485D02*
X105840476Y-81616485D01*
X88614285Y-58949819D02*
X88614285Y-57949819D01*
X88042857Y-58949819D02*
X88471428Y-58378390D01*
X88042857Y-57949819D02*
X88614285Y-58521247D01*
X87090476Y-58949819D02*
X87661904Y-58949819D01*
X87376190Y-58949819D02*
X87376190Y-57949819D01*
X87376190Y-57949819D02*
X87471428Y-58092676D01*
X87471428Y-58092676D02*
X87566666Y-58187914D01*
X87566666Y-58187914D02*
X87661904Y-58235533D01*
X86471428Y-57949819D02*
X86376190Y-57949819D01*
X86376190Y-57949819D02*
X86280952Y-57997438D01*
X86280952Y-57997438D02*
X86233333Y-58045057D01*
X86233333Y-58045057D02*
X86185714Y-58140295D01*
X86185714Y-58140295D02*
X86138095Y-58330771D01*
X86138095Y-58330771D02*
X86138095Y-58568866D01*
X86138095Y-58568866D02*
X86185714Y-58759342D01*
X86185714Y-58759342D02*
X86233333Y-58854580D01*
X86233333Y-58854580D02*
X86280952Y-58902200D01*
X86280952Y-58902200D02*
X86376190Y-58949819D01*
X86376190Y-58949819D02*
X86471428Y-58949819D01*
X86471428Y-58949819D02*
X86566666Y-58902200D01*
X86566666Y-58902200D02*
X86614285Y-58854580D01*
X86614285Y-58854580D02*
X86661904Y-58759342D01*
X86661904Y-58759342D02*
X86709523Y-58568866D01*
X86709523Y-58568866D02*
X86709523Y-58330771D01*
X86709523Y-58330771D02*
X86661904Y-58140295D01*
X86661904Y-58140295D02*
X86614285Y-58045057D01*
X86614285Y-58045057D02*
X86566666Y-57997438D01*
X86566666Y-57997438D02*
X86471428Y-57949819D01*
X88614285Y-98949819D02*
X88614285Y-97949819D01*
X88042857Y-98949819D02*
X88471428Y-98378390D01*
X88042857Y-97949819D02*
X88614285Y-98521247D01*
X87090476Y-98949819D02*
X87661904Y-98949819D01*
X87376190Y-98949819D02*
X87376190Y-97949819D01*
X87376190Y-97949819D02*
X87471428Y-98092676D01*
X87471428Y-98092676D02*
X87566666Y-98187914D01*
X87566666Y-98187914D02*
X87661904Y-98235533D01*
X86709523Y-98045057D02*
X86661904Y-97997438D01*
X86661904Y-97997438D02*
X86566666Y-97949819D01*
X86566666Y-97949819D02*
X86328571Y-97949819D01*
X86328571Y-97949819D02*
X86233333Y-97997438D01*
X86233333Y-97997438D02*
X86185714Y-98045057D01*
X86185714Y-98045057D02*
X86138095Y-98140295D01*
X86138095Y-98140295D02*
X86138095Y-98235533D01*
X86138095Y-98235533D02*
X86185714Y-98378390D01*
X86185714Y-98378390D02*
X86757142Y-98949819D01*
X86757142Y-98949819D02*
X86138095Y-98949819D01*
X27115475Y-112787295D02*
X27115475Y-111987295D01*
X27115475Y-111987295D02*
X26924999Y-111987295D01*
X26924999Y-111987295D02*
X26810713Y-112025390D01*
X26810713Y-112025390D02*
X26734523Y-112101580D01*
X26734523Y-112101580D02*
X26696428Y-112177771D01*
X26696428Y-112177771D02*
X26658332Y-112330152D01*
X26658332Y-112330152D02*
X26658332Y-112444438D01*
X26658332Y-112444438D02*
X26696428Y-112596819D01*
X26696428Y-112596819D02*
X26734523Y-112673009D01*
X26734523Y-112673009D02*
X26810713Y-112749200D01*
X26810713Y-112749200D02*
X26924999Y-112787295D01*
X26924999Y-112787295D02*
X27115475Y-112787295D01*
X26391666Y-111987295D02*
X25896428Y-111987295D01*
X25896428Y-111987295D02*
X26163094Y-112292057D01*
X26163094Y-112292057D02*
X26048809Y-112292057D01*
X26048809Y-112292057D02*
X25972618Y-112330152D01*
X25972618Y-112330152D02*
X25934523Y-112368247D01*
X25934523Y-112368247D02*
X25896428Y-112444438D01*
X25896428Y-112444438D02*
X25896428Y-112634914D01*
X25896428Y-112634914D02*
X25934523Y-112711104D01*
X25934523Y-112711104D02*
X25972618Y-112749200D01*
X25972618Y-112749200D02*
X26048809Y-112787295D01*
X26048809Y-112787295D02*
X26277380Y-112787295D01*
X26277380Y-112787295D02*
X26353571Y-112749200D01*
X26353571Y-112749200D02*
X26391666Y-112711104D01*
X77265475Y-56537295D02*
X77265475Y-55737295D01*
X77265475Y-55737295D02*
X77074999Y-55737295D01*
X77074999Y-55737295D02*
X76960713Y-55775390D01*
X76960713Y-55775390D02*
X76884523Y-55851580D01*
X76884523Y-55851580D02*
X76846428Y-55927771D01*
X76846428Y-55927771D02*
X76808332Y-56080152D01*
X76808332Y-56080152D02*
X76808332Y-56194438D01*
X76808332Y-56194438D02*
X76846428Y-56346819D01*
X76846428Y-56346819D02*
X76884523Y-56423009D01*
X76884523Y-56423009D02*
X76960713Y-56499200D01*
X76960713Y-56499200D02*
X77074999Y-56537295D01*
X77074999Y-56537295D02*
X77265475Y-56537295D01*
X76541666Y-55737295D02*
X76008332Y-55737295D01*
X76008332Y-55737295D02*
X76351190Y-56537295D01*
X87321428Y-79537295D02*
X87321428Y-78737295D01*
X87321428Y-78737295D02*
X87130952Y-78737295D01*
X87130952Y-78737295D02*
X87016666Y-78775390D01*
X87016666Y-78775390D02*
X86940476Y-78851580D01*
X86940476Y-78851580D02*
X86902381Y-78927771D01*
X86902381Y-78927771D02*
X86864285Y-79080152D01*
X86864285Y-79080152D02*
X86864285Y-79194438D01*
X86864285Y-79194438D02*
X86902381Y-79346819D01*
X86902381Y-79346819D02*
X86940476Y-79423009D01*
X86940476Y-79423009D02*
X87016666Y-79499200D01*
X87016666Y-79499200D02*
X87130952Y-79537295D01*
X87130952Y-79537295D02*
X87321428Y-79537295D01*
X86102381Y-79537295D02*
X86559524Y-79537295D01*
X86330952Y-79537295D02*
X86330952Y-78737295D01*
X86330952Y-78737295D02*
X86407143Y-78851580D01*
X86407143Y-78851580D02*
X86483333Y-78927771D01*
X86483333Y-78927771D02*
X86559524Y-78965866D01*
X85340476Y-79537295D02*
X85797619Y-79537295D01*
X85569047Y-79537295D02*
X85569047Y-78737295D01*
X85569047Y-78737295D02*
X85645238Y-78851580D01*
X85645238Y-78851580D02*
X85721428Y-78927771D01*
X85721428Y-78927771D02*
X85797619Y-78965866D01*
X67190475Y-74537295D02*
X67190475Y-73737295D01*
X67190475Y-73737295D02*
X66999999Y-73737295D01*
X66999999Y-73737295D02*
X66885713Y-73775390D01*
X66885713Y-73775390D02*
X66809523Y-73851580D01*
X66809523Y-73851580D02*
X66771428Y-73927771D01*
X66771428Y-73927771D02*
X66733332Y-74080152D01*
X66733332Y-74080152D02*
X66733332Y-74194438D01*
X66733332Y-74194438D02*
X66771428Y-74346819D01*
X66771428Y-74346819D02*
X66809523Y-74423009D01*
X66809523Y-74423009D02*
X66885713Y-74499200D01*
X66885713Y-74499200D02*
X66999999Y-74537295D01*
X66999999Y-74537295D02*
X67190475Y-74537295D01*
X66276190Y-74080152D02*
X66352380Y-74042057D01*
X66352380Y-74042057D02*
X66390475Y-74003961D01*
X66390475Y-74003961D02*
X66428571Y-73927771D01*
X66428571Y-73927771D02*
X66428571Y-73889676D01*
X66428571Y-73889676D02*
X66390475Y-73813485D01*
X66390475Y-73813485D02*
X66352380Y-73775390D01*
X66352380Y-73775390D02*
X66276190Y-73737295D01*
X66276190Y-73737295D02*
X66123809Y-73737295D01*
X66123809Y-73737295D02*
X66047618Y-73775390D01*
X66047618Y-73775390D02*
X66009523Y-73813485D01*
X66009523Y-73813485D02*
X65971428Y-73889676D01*
X65971428Y-73889676D02*
X65971428Y-73927771D01*
X65971428Y-73927771D02*
X66009523Y-74003961D01*
X66009523Y-74003961D02*
X66047618Y-74042057D01*
X66047618Y-74042057D02*
X66123809Y-74080152D01*
X66123809Y-74080152D02*
X66276190Y-74080152D01*
X66276190Y-74080152D02*
X66352380Y-74118247D01*
X66352380Y-74118247D02*
X66390475Y-74156342D01*
X66390475Y-74156342D02*
X66428571Y-74232533D01*
X66428571Y-74232533D02*
X66428571Y-74384914D01*
X66428571Y-74384914D02*
X66390475Y-74461104D01*
X66390475Y-74461104D02*
X66352380Y-74499200D01*
X66352380Y-74499200D02*
X66276190Y-74537295D01*
X66276190Y-74537295D02*
X66123809Y-74537295D01*
X66123809Y-74537295D02*
X66047618Y-74499200D01*
X66047618Y-74499200D02*
X66009523Y-74461104D01*
X66009523Y-74461104D02*
X65971428Y-74384914D01*
X65971428Y-74384914D02*
X65971428Y-74232533D01*
X65971428Y-74232533D02*
X66009523Y-74156342D01*
X66009523Y-74156342D02*
X66047618Y-74118247D01*
X66047618Y-74118247D02*
X66123809Y-74080152D01*
X27190475Y-92787295D02*
X27190475Y-91987295D01*
X27190475Y-91987295D02*
X26999999Y-91987295D01*
X26999999Y-91987295D02*
X26885713Y-92025390D01*
X26885713Y-92025390D02*
X26809523Y-92101580D01*
X26809523Y-92101580D02*
X26771428Y-92177771D01*
X26771428Y-92177771D02*
X26733332Y-92330152D01*
X26733332Y-92330152D02*
X26733332Y-92444438D01*
X26733332Y-92444438D02*
X26771428Y-92596819D01*
X26771428Y-92596819D02*
X26809523Y-92673009D01*
X26809523Y-92673009D02*
X26885713Y-92749200D01*
X26885713Y-92749200D02*
X26999999Y-92787295D01*
X26999999Y-92787295D02*
X27190475Y-92787295D01*
X26428571Y-92063485D02*
X26390475Y-92025390D01*
X26390475Y-92025390D02*
X26314285Y-91987295D01*
X26314285Y-91987295D02*
X26123809Y-91987295D01*
X26123809Y-91987295D02*
X26047618Y-92025390D01*
X26047618Y-92025390D02*
X26009523Y-92063485D01*
X26009523Y-92063485D02*
X25971428Y-92139676D01*
X25971428Y-92139676D02*
X25971428Y-92215866D01*
X25971428Y-92215866D02*
X26009523Y-92330152D01*
X26009523Y-92330152D02*
X26466666Y-92787295D01*
X26466666Y-92787295D02*
X25971428Y-92787295D01*
X47015475Y-99537296D02*
X47015475Y-98737296D01*
X47015475Y-98737296D02*
X46824999Y-98737296D01*
X46824999Y-98737296D02*
X46710713Y-98775391D01*
X46710713Y-98775391D02*
X46634523Y-98851581D01*
X46634523Y-98851581D02*
X46596428Y-98927772D01*
X46596428Y-98927772D02*
X46558332Y-99080153D01*
X46558332Y-99080153D02*
X46558332Y-99194439D01*
X46558332Y-99194439D02*
X46596428Y-99346820D01*
X46596428Y-99346820D02*
X46634523Y-99423010D01*
X46634523Y-99423010D02*
X46710713Y-99499201D01*
X46710713Y-99499201D02*
X46824999Y-99537296D01*
X46824999Y-99537296D02*
X47015475Y-99537296D01*
X45872618Y-98737296D02*
X46024999Y-98737296D01*
X46024999Y-98737296D02*
X46101190Y-98775391D01*
X46101190Y-98775391D02*
X46139285Y-98813486D01*
X46139285Y-98813486D02*
X46215475Y-98927772D01*
X46215475Y-98927772D02*
X46253571Y-99080153D01*
X46253571Y-99080153D02*
X46253571Y-99384915D01*
X46253571Y-99384915D02*
X46215475Y-99461105D01*
X46215475Y-99461105D02*
X46177380Y-99499201D01*
X46177380Y-99499201D02*
X46101190Y-99537296D01*
X46101190Y-99537296D02*
X45948809Y-99537296D01*
X45948809Y-99537296D02*
X45872618Y-99499201D01*
X45872618Y-99499201D02*
X45834523Y-99461105D01*
X45834523Y-99461105D02*
X45796428Y-99384915D01*
X45796428Y-99384915D02*
X45796428Y-99194439D01*
X45796428Y-99194439D02*
X45834523Y-99118248D01*
X45834523Y-99118248D02*
X45872618Y-99080153D01*
X45872618Y-99080153D02*
X45948809Y-99042058D01*
X45948809Y-99042058D02*
X46101190Y-99042058D01*
X46101190Y-99042058D02*
X46177380Y-99080153D01*
X46177380Y-99080153D02*
X46215475Y-99118248D01*
X46215475Y-99118248D02*
X46253571Y-99194439D01*
X107071428Y-102537295D02*
X107071428Y-101737295D01*
X107071428Y-101737295D02*
X106880952Y-101737295D01*
X106880952Y-101737295D02*
X106766666Y-101775390D01*
X106766666Y-101775390D02*
X106690476Y-101851580D01*
X106690476Y-101851580D02*
X106652381Y-101927771D01*
X106652381Y-101927771D02*
X106614285Y-102080152D01*
X106614285Y-102080152D02*
X106614285Y-102194438D01*
X106614285Y-102194438D02*
X106652381Y-102346819D01*
X106652381Y-102346819D02*
X106690476Y-102423009D01*
X106690476Y-102423009D02*
X106766666Y-102499200D01*
X106766666Y-102499200D02*
X106880952Y-102537295D01*
X106880952Y-102537295D02*
X107071428Y-102537295D01*
X105852381Y-102537295D02*
X106309524Y-102537295D01*
X106080952Y-102537295D02*
X106080952Y-101737295D01*
X106080952Y-101737295D02*
X106157143Y-101851580D01*
X106157143Y-101851580D02*
X106233333Y-101927771D01*
X106233333Y-101927771D02*
X106309524Y-101965866D01*
X105128571Y-101737295D02*
X105509523Y-101737295D01*
X105509523Y-101737295D02*
X105547619Y-102118247D01*
X105547619Y-102118247D02*
X105509523Y-102080152D01*
X105509523Y-102080152D02*
X105433333Y-102042057D01*
X105433333Y-102042057D02*
X105242857Y-102042057D01*
X105242857Y-102042057D02*
X105166666Y-102080152D01*
X105166666Y-102080152D02*
X105128571Y-102118247D01*
X105128571Y-102118247D02*
X105090476Y-102194438D01*
X105090476Y-102194438D02*
X105090476Y-102384914D01*
X105090476Y-102384914D02*
X105128571Y-102461104D01*
X105128571Y-102461104D02*
X105166666Y-102499200D01*
X105166666Y-102499200D02*
X105242857Y-102537295D01*
X105242857Y-102537295D02*
X105433333Y-102537295D01*
X105433333Y-102537295D02*
X105509523Y-102499200D01*
X105509523Y-102499200D02*
X105547619Y-102461104D01*
X107071428Y-62537295D02*
X107071428Y-61737295D01*
X107071428Y-61737295D02*
X106880952Y-61737295D01*
X106880952Y-61737295D02*
X106766666Y-61775390D01*
X106766666Y-61775390D02*
X106690476Y-61851580D01*
X106690476Y-61851580D02*
X106652381Y-61927771D01*
X106652381Y-61927771D02*
X106614285Y-62080152D01*
X106614285Y-62080152D02*
X106614285Y-62194438D01*
X106614285Y-62194438D02*
X106652381Y-62346819D01*
X106652381Y-62346819D02*
X106690476Y-62423009D01*
X106690476Y-62423009D02*
X106766666Y-62499200D01*
X106766666Y-62499200D02*
X106880952Y-62537295D01*
X106880952Y-62537295D02*
X107071428Y-62537295D01*
X105852381Y-62537295D02*
X106309524Y-62537295D01*
X106080952Y-62537295D02*
X106080952Y-61737295D01*
X106080952Y-61737295D02*
X106157143Y-61851580D01*
X106157143Y-61851580D02*
X106233333Y-61927771D01*
X106233333Y-61927771D02*
X106309524Y-61965866D01*
X105585714Y-61737295D02*
X105090476Y-61737295D01*
X105090476Y-61737295D02*
X105357142Y-62042057D01*
X105357142Y-62042057D02*
X105242857Y-62042057D01*
X105242857Y-62042057D02*
X105166666Y-62080152D01*
X105166666Y-62080152D02*
X105128571Y-62118247D01*
X105128571Y-62118247D02*
X105090476Y-62194438D01*
X105090476Y-62194438D02*
X105090476Y-62384914D01*
X105090476Y-62384914D02*
X105128571Y-62461104D01*
X105128571Y-62461104D02*
X105166666Y-62499200D01*
X105166666Y-62499200D02*
X105242857Y-62537295D01*
X105242857Y-62537295D02*
X105471428Y-62537295D01*
X105471428Y-62537295D02*
X105547619Y-62499200D01*
X105547619Y-62499200D02*
X105585714Y-62461104D01*
X87571428Y-59287295D02*
X87571428Y-58487295D01*
X87571428Y-58487295D02*
X87380952Y-58487295D01*
X87380952Y-58487295D02*
X87266666Y-58525390D01*
X87266666Y-58525390D02*
X87190476Y-58601580D01*
X87190476Y-58601580D02*
X87152381Y-58677771D01*
X87152381Y-58677771D02*
X87114285Y-58830152D01*
X87114285Y-58830152D02*
X87114285Y-58944438D01*
X87114285Y-58944438D02*
X87152381Y-59096819D01*
X87152381Y-59096819D02*
X87190476Y-59173009D01*
X87190476Y-59173009D02*
X87266666Y-59249200D01*
X87266666Y-59249200D02*
X87380952Y-59287295D01*
X87380952Y-59287295D02*
X87571428Y-59287295D01*
X86352381Y-59287295D02*
X86809524Y-59287295D01*
X86580952Y-59287295D02*
X86580952Y-58487295D01*
X86580952Y-58487295D02*
X86657143Y-58601580D01*
X86657143Y-58601580D02*
X86733333Y-58677771D01*
X86733333Y-58677771D02*
X86809524Y-58715866D01*
X85857142Y-58487295D02*
X85780952Y-58487295D01*
X85780952Y-58487295D02*
X85704761Y-58525390D01*
X85704761Y-58525390D02*
X85666666Y-58563485D01*
X85666666Y-58563485D02*
X85628571Y-58639676D01*
X85628571Y-58639676D02*
X85590476Y-58792057D01*
X85590476Y-58792057D02*
X85590476Y-58982533D01*
X85590476Y-58982533D02*
X85628571Y-59134914D01*
X85628571Y-59134914D02*
X85666666Y-59211104D01*
X85666666Y-59211104D02*
X85704761Y-59249200D01*
X85704761Y-59249200D02*
X85780952Y-59287295D01*
X85780952Y-59287295D02*
X85857142Y-59287295D01*
X85857142Y-59287295D02*
X85933333Y-59249200D01*
X85933333Y-59249200D02*
X85971428Y-59211104D01*
X85971428Y-59211104D02*
X86009523Y-59134914D01*
X86009523Y-59134914D02*
X86047619Y-58982533D01*
X86047619Y-58982533D02*
X86047619Y-58792057D01*
X86047619Y-58792057D02*
X86009523Y-58639676D01*
X86009523Y-58639676D02*
X85971428Y-58563485D01*
X85971428Y-58563485D02*
X85933333Y-58525390D01*
X85933333Y-58525390D02*
X85857142Y-58487295D01*
X87571428Y-99537295D02*
X87571428Y-98737295D01*
X87571428Y-98737295D02*
X87380952Y-98737295D01*
X87380952Y-98737295D02*
X87266666Y-98775390D01*
X87266666Y-98775390D02*
X87190476Y-98851580D01*
X87190476Y-98851580D02*
X87152381Y-98927771D01*
X87152381Y-98927771D02*
X87114285Y-99080152D01*
X87114285Y-99080152D02*
X87114285Y-99194438D01*
X87114285Y-99194438D02*
X87152381Y-99346819D01*
X87152381Y-99346819D02*
X87190476Y-99423009D01*
X87190476Y-99423009D02*
X87266666Y-99499200D01*
X87266666Y-99499200D02*
X87380952Y-99537295D01*
X87380952Y-99537295D02*
X87571428Y-99537295D01*
X86352381Y-99537295D02*
X86809524Y-99537295D01*
X86580952Y-99537295D02*
X86580952Y-98737295D01*
X86580952Y-98737295D02*
X86657143Y-98851580D01*
X86657143Y-98851580D02*
X86733333Y-98927771D01*
X86733333Y-98927771D02*
X86809524Y-98965866D01*
X86047619Y-98813485D02*
X86009523Y-98775390D01*
X86009523Y-98775390D02*
X85933333Y-98737295D01*
X85933333Y-98737295D02*
X85742857Y-98737295D01*
X85742857Y-98737295D02*
X85666666Y-98775390D01*
X85666666Y-98775390D02*
X85628571Y-98813485D01*
X85628571Y-98813485D02*
X85590476Y-98889676D01*
X85590476Y-98889676D02*
X85590476Y-98965866D01*
X85590476Y-98965866D02*
X85628571Y-99080152D01*
X85628571Y-99080152D02*
X86085714Y-99537295D01*
X86085714Y-99537295D02*
X85590476Y-99537295D01*
X94059485Y-119171233D02*
X94198404Y-118383386D01*
X94198404Y-118383386D02*
X94010821Y-118350310D01*
X94010821Y-118350310D02*
X93891657Y-118367981D01*
X93891657Y-118367981D02*
X93803393Y-118429784D01*
X93803393Y-118429784D02*
X93752647Y-118498202D01*
X93752647Y-118498202D02*
X93688669Y-118641653D01*
X93688669Y-118641653D02*
X93668824Y-118754202D01*
X93668824Y-118754202D02*
X93679880Y-118910883D01*
X93679880Y-118910883D02*
X93704166Y-118992531D01*
X93704166Y-118992531D02*
X93765968Y-119080795D01*
X93765968Y-119080795D02*
X93871903Y-119138157D01*
X93871903Y-119138157D02*
X94059485Y-119171233D01*
X92858958Y-118959547D02*
X93309155Y-119038929D01*
X93084057Y-118999238D02*
X93222975Y-118211392D01*
X93222975Y-118211392D02*
X93278163Y-118337172D01*
X93278163Y-118337172D02*
X93339965Y-118425435D01*
X93339965Y-118425435D02*
X93408383Y-118476182D01*
X92322579Y-118052628D02*
X92472645Y-118079088D01*
X92472645Y-118079088D02*
X92541063Y-118129835D01*
X92541063Y-118129835D02*
X92571964Y-118173967D01*
X92571964Y-118173967D02*
X92627152Y-118299747D01*
X92627152Y-118299747D02*
X92638208Y-118456428D01*
X92638208Y-118456428D02*
X92585286Y-118756560D01*
X92585286Y-118756560D02*
X92534539Y-118824978D01*
X92534539Y-118824978D02*
X92490408Y-118855879D01*
X92490408Y-118855879D02*
X92408760Y-118880165D01*
X92408760Y-118880165D02*
X92258694Y-118853704D01*
X92258694Y-118853704D02*
X92190276Y-118802958D01*
X92190276Y-118802958D02*
X92159375Y-118758826D01*
X92159375Y-118758826D02*
X92135088Y-118677178D01*
X92135088Y-118677178D02*
X92168164Y-118489595D01*
X92168164Y-118489595D02*
X92218911Y-118421178D01*
X92218911Y-118421178D02*
X92263043Y-118390276D01*
X92263043Y-118390276D02*
X92344691Y-118365990D01*
X92344691Y-118365990D02*
X92494757Y-118392451D01*
X92494757Y-118392451D02*
X92563175Y-118443198D01*
X92563175Y-118443198D02*
X92594076Y-118487329D01*
X92594076Y-118487329D02*
X92618362Y-118568977D01*
X67190475Y-94537295D02*
X67190475Y-93737295D01*
X67190475Y-93737295D02*
X66999999Y-93737295D01*
X66999999Y-93737295D02*
X66885713Y-93775390D01*
X66885713Y-93775390D02*
X66809523Y-93851580D01*
X66809523Y-93851580D02*
X66771428Y-93927771D01*
X66771428Y-93927771D02*
X66733332Y-94080152D01*
X66733332Y-94080152D02*
X66733332Y-94194438D01*
X66733332Y-94194438D02*
X66771428Y-94346819D01*
X66771428Y-94346819D02*
X66809523Y-94423009D01*
X66809523Y-94423009D02*
X66885713Y-94499200D01*
X66885713Y-94499200D02*
X66999999Y-94537295D01*
X66999999Y-94537295D02*
X67190475Y-94537295D01*
X66352380Y-94537295D02*
X66199999Y-94537295D01*
X66199999Y-94537295D02*
X66123809Y-94499200D01*
X66123809Y-94499200D02*
X66085713Y-94461104D01*
X66085713Y-94461104D02*
X66009523Y-94346819D01*
X66009523Y-94346819D02*
X65971428Y-94194438D01*
X65971428Y-94194438D02*
X65971428Y-93889676D01*
X65971428Y-93889676D02*
X66009523Y-93813485D01*
X66009523Y-93813485D02*
X66047618Y-93775390D01*
X66047618Y-93775390D02*
X66123809Y-93737295D01*
X66123809Y-93737295D02*
X66276190Y-93737295D01*
X66276190Y-93737295D02*
X66352380Y-93775390D01*
X66352380Y-93775390D02*
X66390475Y-93813485D01*
X66390475Y-93813485D02*
X66428571Y-93889676D01*
X66428571Y-93889676D02*
X66428571Y-94080152D01*
X66428571Y-94080152D02*
X66390475Y-94156342D01*
X66390475Y-94156342D02*
X66352380Y-94194438D01*
X66352380Y-94194438D02*
X66276190Y-94232533D01*
X66276190Y-94232533D02*
X66123809Y-94232533D01*
X66123809Y-94232533D02*
X66047618Y-94194438D01*
X66047618Y-94194438D02*
X66009523Y-94156342D01*
X66009523Y-94156342D02*
X65971428Y-94080152D01*
X112290840Y-133244252D02*
X112628935Y-132519206D01*
X112628935Y-132519206D02*
X112456305Y-132438707D01*
X112456305Y-132438707D02*
X112336627Y-132424934D01*
X112336627Y-132424934D02*
X112235376Y-132461786D01*
X112235376Y-132461786D02*
X112168650Y-132514739D01*
X112168650Y-132514739D02*
X112069725Y-132636743D01*
X112069725Y-132636743D02*
X112021426Y-132740321D01*
X112021426Y-132740321D02*
X111991553Y-132894525D01*
X111991553Y-132894525D02*
X111993880Y-132979677D01*
X111993880Y-132979677D02*
X112030732Y-133080928D01*
X112030732Y-133080928D02*
X112118210Y-133163753D01*
X112118210Y-133163753D02*
X112290840Y-133244252D01*
X111186008Y-132729060D02*
X111600320Y-132922257D01*
X111393164Y-132825659D02*
X111731259Y-132100612D01*
X111731259Y-132100612D02*
X111752012Y-132236390D01*
X111752012Y-132236390D02*
X111788864Y-132337642D01*
X111788864Y-132337642D02*
X111841816Y-132404367D01*
X111282420Y-131891316D02*
X110799056Y-131665919D01*
X110799056Y-131665919D02*
X110771696Y-132535863D01*
X29390475Y-73037295D02*
X29390475Y-72237295D01*
X29390475Y-72237295D02*
X29199999Y-72237295D01*
X29199999Y-72237295D02*
X29085713Y-72275390D01*
X29085713Y-72275390D02*
X29009523Y-72351580D01*
X29009523Y-72351580D02*
X28971428Y-72427771D01*
X28971428Y-72427771D02*
X28933332Y-72580152D01*
X28933332Y-72580152D02*
X28933332Y-72694438D01*
X28933332Y-72694438D02*
X28971428Y-72846819D01*
X28971428Y-72846819D02*
X29009523Y-72923009D01*
X29009523Y-72923009D02*
X29085713Y-72999200D01*
X29085713Y-72999200D02*
X29199999Y-73037295D01*
X29199999Y-73037295D02*
X29390475Y-73037295D01*
X28171428Y-73037295D02*
X28628571Y-73037295D01*
X28399999Y-73037295D02*
X28399999Y-72237295D01*
X28399999Y-72237295D02*
X28476190Y-72351580D01*
X28476190Y-72351580D02*
X28552380Y-72427771D01*
X28552380Y-72427771D02*
X28628571Y-72465866D01*
X47190475Y-79537295D02*
X47190475Y-78737295D01*
X47190475Y-78737295D02*
X46999999Y-78737295D01*
X46999999Y-78737295D02*
X46885713Y-78775390D01*
X46885713Y-78775390D02*
X46809523Y-78851580D01*
X46809523Y-78851580D02*
X46771428Y-78927771D01*
X46771428Y-78927771D02*
X46733332Y-79080152D01*
X46733332Y-79080152D02*
X46733332Y-79194438D01*
X46733332Y-79194438D02*
X46771428Y-79346819D01*
X46771428Y-79346819D02*
X46809523Y-79423009D01*
X46809523Y-79423009D02*
X46885713Y-79499200D01*
X46885713Y-79499200D02*
X46999999Y-79537295D01*
X46999999Y-79537295D02*
X47190475Y-79537295D01*
X46009523Y-78737295D02*
X46390475Y-78737295D01*
X46390475Y-78737295D02*
X46428571Y-79118247D01*
X46428571Y-79118247D02*
X46390475Y-79080152D01*
X46390475Y-79080152D02*
X46314285Y-79042057D01*
X46314285Y-79042057D02*
X46123809Y-79042057D01*
X46123809Y-79042057D02*
X46047618Y-79080152D01*
X46047618Y-79080152D02*
X46009523Y-79118247D01*
X46009523Y-79118247D02*
X45971428Y-79194438D01*
X45971428Y-79194438D02*
X45971428Y-79384914D01*
X45971428Y-79384914D02*
X46009523Y-79461104D01*
X46009523Y-79461104D02*
X46047618Y-79499200D01*
X46047618Y-79499200D02*
X46123809Y-79537295D01*
X46123809Y-79537295D02*
X46314285Y-79537295D01*
X46314285Y-79537295D02*
X46390475Y-79499200D01*
X46390475Y-79499200D02*
X46428571Y-79461104D01*
X49640475Y-59287295D02*
X49640475Y-58487295D01*
X49640475Y-58487295D02*
X49449999Y-58487295D01*
X49449999Y-58487295D02*
X49335713Y-58525390D01*
X49335713Y-58525390D02*
X49259523Y-58601580D01*
X49259523Y-58601580D02*
X49221428Y-58677771D01*
X49221428Y-58677771D02*
X49183332Y-58830152D01*
X49183332Y-58830152D02*
X49183332Y-58944438D01*
X49183332Y-58944438D02*
X49221428Y-59096819D01*
X49221428Y-59096819D02*
X49259523Y-59173009D01*
X49259523Y-59173009D02*
X49335713Y-59249200D01*
X49335713Y-59249200D02*
X49449999Y-59287295D01*
X49449999Y-59287295D02*
X49640475Y-59287295D01*
X48497618Y-58753961D02*
X48497618Y-59287295D01*
X48688094Y-58449200D02*
X48878571Y-59020628D01*
X48878571Y-59020628D02*
X48383332Y-59020628D01*
X107321428Y-82537295D02*
X107321428Y-81737295D01*
X107321428Y-81737295D02*
X107130952Y-81737295D01*
X107130952Y-81737295D02*
X107016666Y-81775390D01*
X107016666Y-81775390D02*
X106940476Y-81851580D01*
X106940476Y-81851580D02*
X106902381Y-81927771D01*
X106902381Y-81927771D02*
X106864285Y-82080152D01*
X106864285Y-82080152D02*
X106864285Y-82194438D01*
X106864285Y-82194438D02*
X106902381Y-82346819D01*
X106902381Y-82346819D02*
X106940476Y-82423009D01*
X106940476Y-82423009D02*
X107016666Y-82499200D01*
X107016666Y-82499200D02*
X107130952Y-82537295D01*
X107130952Y-82537295D02*
X107321428Y-82537295D01*
X106102381Y-82537295D02*
X106559524Y-82537295D01*
X106330952Y-82537295D02*
X106330952Y-81737295D01*
X106330952Y-81737295D02*
X106407143Y-81851580D01*
X106407143Y-81851580D02*
X106483333Y-81927771D01*
X106483333Y-81927771D02*
X106559524Y-81965866D01*
X105416666Y-82003961D02*
X105416666Y-82537295D01*
X105607142Y-81699200D02*
X105797619Y-82270628D01*
X105797619Y-82270628D02*
X105302380Y-82270628D01*
%TO.C,K15*%
X100150000Y-102750000D02*
X101150000Y-102750000D01*
X100150000Y-103750000D02*
X100150000Y-102750000D01*
X100150000Y-116750000D02*
X100150000Y-115750000D01*
X101150000Y-116750000D02*
X100150000Y-116750000D01*
X113150000Y-102750000D02*
X114150000Y-102750000D01*
X114150000Y-102750000D02*
X114150000Y-103750000D01*
X114150000Y-115750000D02*
X114150000Y-116750000D01*
X114150000Y-116750000D02*
X113150000Y-116750000D01*
%TO.C,K1*%
X20400000Y-73000000D02*
X21400000Y-73000000D01*
X20400000Y-74000000D02*
X20400000Y-73000000D01*
X20400000Y-87000000D02*
X20400000Y-86000000D01*
X21400000Y-87000000D02*
X20400000Y-87000000D01*
X33400000Y-73000000D02*
X34400000Y-73000000D01*
X34400000Y-73000000D02*
X34400000Y-74000000D01*
X34400000Y-86000000D02*
X34400000Y-87000000D01*
X34400000Y-87000000D02*
X33400000Y-87000000D01*
%TO.C,K17*%
X117097518Y-142385827D02*
X117520136Y-141479519D01*
X118003825Y-142808445D02*
X117097518Y-142385827D01*
X122591555Y-130603825D02*
X123014173Y-129697518D01*
X123014173Y-129697518D02*
X123920481Y-130120136D01*
X129785827Y-148302482D02*
X128879519Y-147879864D01*
X130208445Y-147396175D02*
X129785827Y-148302482D01*
X134796175Y-135191555D02*
X135702482Y-135614173D01*
X135702482Y-135614173D02*
X135279864Y-136520481D01*
%TO.C,K9*%
X60400000Y-94750000D02*
X61400000Y-94750000D01*
X60400000Y-95750000D02*
X60400000Y-94750000D01*
X60400000Y-108750000D02*
X60400000Y-107750000D01*
X61400000Y-108750000D02*
X60400000Y-108750000D01*
X73400000Y-94750000D02*
X74400000Y-94750000D01*
X74400000Y-94750000D02*
X74400000Y-95750000D01*
X74400000Y-107750000D02*
X74400000Y-108750000D01*
X74400000Y-108750000D02*
X73400000Y-108750000D01*
%TO.C,K16*%
X88040808Y-135178117D02*
X88214457Y-134193309D01*
X89025616Y-135351765D02*
X88040808Y-135178117D01*
X90298235Y-122375616D02*
X90471883Y-121390808D01*
X90471883Y-121390808D02*
X91456691Y-121564457D01*
X101828117Y-137609192D02*
X100843309Y-137435543D01*
X102001765Y-136624384D02*
X101828117Y-137609192D01*
X103274384Y-123648235D02*
X104259192Y-123821883D01*
X104259192Y-123821883D02*
X104085543Y-124806691D01*
%TO.C,K5*%
X40400000Y-79750000D02*
X41400000Y-79750000D01*
X40400000Y-80750000D02*
X40400000Y-79750000D01*
X40400000Y-93750000D02*
X40400000Y-92750000D01*
X41400000Y-93750000D02*
X40400000Y-93750000D01*
X53400000Y-79750000D02*
X54400000Y-79750000D01*
X54400000Y-79750000D02*
X54400000Y-80750000D01*
X54400000Y-92750000D02*
X54400000Y-93750000D01*
X54400000Y-93750000D02*
X53400000Y-93750000D01*
D11*
%TO.C,U1*%
X118760000Y-52720000D02*
X118760000Y-85740000D01*
X118760000Y-85740000D02*
X136540000Y-85740000D01*
X136540000Y-52720000D02*
X118760000Y-52720000D01*
X136540000Y-85740000D02*
X136540000Y-52720000D01*
D10*
%TO.C,K6*%
X40400000Y-99750000D02*
X41400000Y-99750000D01*
X40400000Y-100750000D02*
X40400000Y-99750000D01*
X40400000Y-113750000D02*
X40400000Y-112750000D01*
X41400000Y-113750000D02*
X40400000Y-113750000D01*
X53400000Y-99750000D02*
X54400000Y-99750000D01*
X54400000Y-99750000D02*
X54400000Y-100750000D01*
X54400000Y-112750000D02*
X54400000Y-113750000D01*
X54400000Y-113750000D02*
X53400000Y-113750000D01*
%TO.C,K4*%
X40400000Y-59750000D02*
X41400000Y-59750000D01*
X40400000Y-60750000D02*
X40400000Y-59750000D01*
X40400000Y-73750000D02*
X40400000Y-72750000D01*
X41400000Y-73750000D02*
X40400000Y-73750000D01*
X53400000Y-59750000D02*
X54400000Y-59750000D01*
X54400000Y-59750000D02*
X54400000Y-60750000D01*
X54400000Y-72750000D02*
X54400000Y-73750000D01*
X54400000Y-73750000D02*
X53400000Y-73750000D01*
%TO.C,K3*%
X20400000Y-113000000D02*
X21400000Y-113000000D01*
X20400000Y-114000000D02*
X20400000Y-113000000D01*
X20400000Y-127000000D02*
X20400000Y-126000000D01*
X21400000Y-127000000D02*
X20400000Y-127000000D01*
X33400000Y-113000000D02*
X34400000Y-113000000D01*
X34400000Y-113000000D02*
X34400000Y-114000000D01*
X34400000Y-126000000D02*
X34400000Y-127000000D01*
X34400000Y-127000000D02*
X33400000Y-127000000D01*
%TO.C,K7*%
X60400000Y-54750000D02*
X61400000Y-54750000D01*
X60400000Y-55750000D02*
X60400000Y-54750000D01*
X60400000Y-68750000D02*
X60400000Y-67750000D01*
X61400000Y-68750000D02*
X60400000Y-68750000D01*
X73400000Y-54750000D02*
X74400000Y-54750000D01*
X74400000Y-54750000D02*
X74400000Y-55750000D01*
X74400000Y-67750000D02*
X74400000Y-68750000D01*
X74400000Y-68750000D02*
X73400000Y-68750000D01*
%TO.C,K8*%
X60400000Y-74750000D02*
X61400000Y-74750000D01*
X60400000Y-75750000D02*
X60400000Y-74750000D01*
X60400000Y-88750000D02*
X60400000Y-87750000D01*
X61400000Y-88750000D02*
X60400000Y-88750000D01*
X73400000Y-74750000D02*
X74400000Y-74750000D01*
X74400000Y-74750000D02*
X74400000Y-75750000D01*
X74400000Y-87750000D02*
X74400000Y-88750000D01*
X74400000Y-88750000D02*
X73400000Y-88750000D01*
%TO.C,K13*%
X100150000Y-62750000D02*
X101150000Y-62750000D01*
X100150000Y-63750000D02*
X100150000Y-62750000D01*
X100150000Y-76750000D02*
X100150000Y-75750000D01*
X101150000Y-76750000D02*
X100150000Y-76750000D01*
X113150000Y-62750000D02*
X114150000Y-62750000D01*
X114150000Y-62750000D02*
X114150000Y-63750000D01*
X114150000Y-75750000D02*
X114150000Y-76750000D01*
X114150000Y-76750000D02*
X113150000Y-76750000D01*
%TO.C,K2*%
X20400000Y-93000000D02*
X21400000Y-93000000D01*
X20400000Y-94000000D02*
X20400000Y-93000000D01*
X20400000Y-107000000D02*
X20400000Y-106000000D01*
X21400000Y-107000000D02*
X20400000Y-107000000D01*
X33400000Y-93000000D02*
X34400000Y-93000000D01*
X34400000Y-93000000D02*
X34400000Y-94000000D01*
X34400000Y-106000000D02*
X34400000Y-107000000D01*
X34400000Y-107000000D02*
X33400000Y-107000000D01*
%TO.C,K11*%
X80400000Y-79750000D02*
X81400000Y-79750000D01*
X80400000Y-80750000D02*
X80400000Y-79750000D01*
X80400000Y-93750000D02*
X80400000Y-92750000D01*
X81400000Y-93750000D02*
X80400000Y-93750000D01*
X93400000Y-79750000D02*
X94400000Y-79750000D01*
X94400000Y-79750000D02*
X94400000Y-80750000D01*
X94400000Y-92750000D02*
X94400000Y-93750000D01*
X94400000Y-93750000D02*
X93400000Y-93750000D01*
%TO.C,K14*%
X100150000Y-82750000D02*
X101150000Y-82750000D01*
X100150000Y-83750000D02*
X100150000Y-82750000D01*
X100150000Y-96750000D02*
X100150000Y-95750000D01*
X101150000Y-96750000D02*
X100150000Y-96750000D01*
X113150000Y-82750000D02*
X114150000Y-82750000D01*
X114150000Y-82750000D02*
X114150000Y-83750000D01*
X114150000Y-95750000D02*
X114150000Y-96750000D01*
X114150000Y-96750000D02*
X113150000Y-96750000D01*
%TO.C,K10*%
X80400000Y-59750000D02*
X81400000Y-59750000D01*
X80400000Y-60750000D02*
X80400000Y-59750000D01*
X80400000Y-73750000D02*
X80400000Y-72750000D01*
X81400000Y-73750000D02*
X80400000Y-73750000D01*
X93400000Y-59750000D02*
X94400000Y-59750000D01*
X94400000Y-59750000D02*
X94400000Y-60750000D01*
X94400000Y-72750000D02*
X94400000Y-73750000D01*
X94400000Y-73750000D02*
X93400000Y-73750000D01*
%TO.C,K12*%
X80400000Y-99750000D02*
X81400000Y-99750000D01*
X80400000Y-100750000D02*
X80400000Y-99750000D01*
X80400000Y-113750000D02*
X80400000Y-112750000D01*
X81400000Y-113750000D02*
X80400000Y-113750000D01*
X93400000Y-99750000D02*
X94400000Y-99750000D01*
X94400000Y-99750000D02*
X94400000Y-100750000D01*
X94400000Y-112750000D02*
X94400000Y-113750000D01*
X94400000Y-113750000D02*
X93400000Y-113750000D01*
D12*
%TO.C,D3*%
X23725000Y-109300000D02*
X23725000Y-111700000D01*
X23725000Y-111700000D02*
X29525000Y-111700000D01*
X28800000Y-109300000D02*
X28800000Y-111700000D01*
X28975000Y-109300000D02*
X28975000Y-111700000D01*
X29150000Y-109300000D02*
X29150000Y-111700000D01*
X29325000Y-109300000D02*
X29325000Y-111700000D01*
X29450000Y-109300000D02*
X29450000Y-111700000D01*
X29525000Y-109300000D02*
X23725000Y-109300000D01*
X29550000Y-111700000D02*
X29550000Y-109300000D01*
%TO.C,D7*%
X73875000Y-53050000D02*
X73875000Y-55450000D01*
X73875000Y-55450000D02*
X79675000Y-55450000D01*
X78950000Y-53050000D02*
X78950000Y-55450000D01*
X79125000Y-53050000D02*
X79125000Y-55450000D01*
X79300000Y-53050000D02*
X79300000Y-55450000D01*
X79475000Y-53050000D02*
X79475000Y-55450000D01*
X79600000Y-53050000D02*
X79600000Y-55450000D01*
X79675000Y-53050000D02*
X73875000Y-53050000D01*
X79700000Y-55450000D02*
X79700000Y-53050000D01*
%TO.C,D11*%
X83550000Y-76050000D02*
X83550000Y-78450000D01*
X83550000Y-78450000D02*
X89350000Y-78450000D01*
X88625000Y-76050000D02*
X88625000Y-78450000D01*
X88800000Y-76050000D02*
X88800000Y-78450000D01*
X88975000Y-76050000D02*
X88975000Y-78450000D01*
X89150000Y-76050000D02*
X89150000Y-78450000D01*
X89275000Y-76050000D02*
X89275000Y-78450000D01*
X89350000Y-76050000D02*
X83550000Y-76050000D01*
X89375000Y-78450000D02*
X89375000Y-76050000D01*
%TO.C,D8*%
X63800000Y-71050000D02*
X63800000Y-73450000D01*
X63800000Y-73450000D02*
X69600000Y-73450000D01*
X68875000Y-71050000D02*
X68875000Y-73450000D01*
X69050000Y-71050000D02*
X69050000Y-73450000D01*
X69225000Y-71050000D02*
X69225000Y-73450000D01*
X69400000Y-71050000D02*
X69400000Y-73450000D01*
X69525000Y-71050000D02*
X69525000Y-73450000D01*
X69600000Y-71050000D02*
X63800000Y-71050000D01*
X69625000Y-73450000D02*
X69625000Y-71050000D01*
%TO.C,D2*%
X23800000Y-89300000D02*
X23800000Y-91700000D01*
X23800000Y-91700000D02*
X29600000Y-91700000D01*
X28875000Y-89300000D02*
X28875000Y-91700000D01*
X29050000Y-89300000D02*
X29050000Y-91700000D01*
X29225000Y-89300000D02*
X29225000Y-91700000D01*
X29400000Y-89300000D02*
X29400000Y-91700000D01*
X29525000Y-89300000D02*
X29525000Y-91700000D01*
X29600000Y-89300000D02*
X23800000Y-89300000D01*
X29625000Y-91700000D02*
X29625000Y-89300000D01*
%TO.C,D6*%
X43625000Y-96050000D02*
X43625000Y-98450000D01*
X43625000Y-98450000D02*
X49425000Y-98450000D01*
X48700000Y-96050000D02*
X48700000Y-98450000D01*
X48875000Y-96049999D02*
X48875000Y-98450001D01*
X49050000Y-96050000D02*
X49050000Y-98450000D01*
X49225000Y-96050000D02*
X49225000Y-98450000D01*
X49350000Y-96050000D02*
X49350000Y-98450000D01*
X49425000Y-96050000D02*
X43625000Y-96050000D01*
X49450000Y-98450000D02*
X49450000Y-96050000D01*
%TO.C,D15*%
X103300000Y-99050000D02*
X103300000Y-101450000D01*
X103300000Y-101450000D02*
X109100000Y-101450000D01*
X108375000Y-99050000D02*
X108375000Y-101450000D01*
X108550000Y-99050000D02*
X108550000Y-101450000D01*
X108725000Y-99050000D02*
X108725000Y-101450000D01*
X108900000Y-99050000D02*
X108900000Y-101450000D01*
X109025000Y-99050000D02*
X109025000Y-101450000D01*
X109100000Y-99050000D02*
X103300000Y-99050000D01*
X109125000Y-101450000D02*
X109125000Y-99050000D01*
%TO.C,D13*%
X103300000Y-59050000D02*
X103300000Y-61450000D01*
X103300000Y-61450000D02*
X109100000Y-61450000D01*
X108375000Y-59050000D02*
X108375000Y-61450000D01*
X108550000Y-59050000D02*
X108550000Y-61450000D01*
X108725000Y-59050000D02*
X108725000Y-61450000D01*
X108900000Y-59050000D02*
X108900000Y-61450000D01*
X109025000Y-59050000D02*
X109025000Y-61450000D01*
X109100000Y-59050000D02*
X103300000Y-59050000D01*
X109125000Y-61450000D02*
X109125000Y-59050000D01*
%TO.C,D10*%
X83800000Y-55800000D02*
X83800000Y-58200000D01*
X83800000Y-58200000D02*
X89600000Y-58200000D01*
X88875000Y-55800000D02*
X88875000Y-58200000D01*
X89050000Y-55800000D02*
X89050000Y-58200000D01*
X89225000Y-55800000D02*
X89225000Y-58200000D01*
X89400000Y-55800000D02*
X89400000Y-58200000D01*
X89525000Y-55800000D02*
X89525000Y-58200000D01*
X89600000Y-55800000D02*
X83800000Y-55800000D01*
X89625000Y-58200000D02*
X89625000Y-55800000D01*
%TO.C,D12*%
X83800000Y-96050000D02*
X83800000Y-98450000D01*
X83800000Y-98450000D02*
X89600000Y-98450000D01*
X88875000Y-96050000D02*
X88875000Y-98450000D01*
X89050000Y-96050000D02*
X89050000Y-98450000D01*
X89225000Y-96050000D02*
X89225000Y-98450000D01*
X89400000Y-96050000D02*
X89400000Y-98450000D01*
X89525000Y-96050000D02*
X89525000Y-98450000D01*
X89600000Y-96050000D02*
X83800000Y-96050000D01*
X89625000Y-98450000D02*
X89625000Y-96050000D01*
%TO.C,D16*%
X90534159Y-117445554D02*
X96246045Y-118452714D01*
X90950916Y-115082016D02*
X90534159Y-117445554D01*
X95948815Y-115963280D02*
X95532060Y-118326819D01*
X96121157Y-115993669D02*
X95704401Y-118357207D01*
X96270666Y-118457055D02*
X96687421Y-116093516D01*
X96293498Y-116024057D02*
X95876743Y-118387596D01*
X96465841Y-116054446D02*
X96049084Y-118417984D01*
X96588940Y-116076152D02*
X96172185Y-118439690D01*
X96662801Y-116089175D02*
X90950916Y-115082016D01*
%TO.C,D9*%
X63800000Y-91050000D02*
X63800000Y-93450000D01*
X63800000Y-93450000D02*
X69600000Y-93450000D01*
X68875000Y-91050000D02*
X68875000Y-93450000D01*
X69050000Y-91050000D02*
X69050000Y-93450000D01*
X69225000Y-91050000D02*
X69225000Y-93450000D01*
X69400000Y-91050000D02*
X69400000Y-93450000D01*
X69525000Y-91050000D02*
X69525000Y-93450000D01*
X69600000Y-91050000D02*
X63800000Y-91050000D01*
X69625000Y-93450000D02*
X69625000Y-91050000D01*
%TO.C,D17*%
X107523935Y-134069715D02*
X112780520Y-136520900D01*
X107591908Y-134101411D02*
X108606192Y-131926272D01*
X107705196Y-134154238D02*
X108719480Y-131979100D01*
X107863800Y-134228196D02*
X108878084Y-132053058D01*
X108022404Y-134302155D02*
X109036688Y-132127016D01*
X108181008Y-134376113D02*
X109195292Y-132200974D01*
X108515561Y-131884010D02*
X107501277Y-134059149D01*
X112780520Y-136520900D02*
X113794804Y-134345762D01*
X113794804Y-134345762D02*
X108538219Y-131894576D01*
%TO.C,D1*%
X26000000Y-69550000D02*
X26000000Y-71950000D01*
X26000000Y-71950000D02*
X31800000Y-71950000D01*
X31075000Y-69550000D02*
X31075000Y-71950000D01*
X31250000Y-69550000D02*
X31250000Y-71950000D01*
X31425000Y-69550000D02*
X31425000Y-71950000D01*
X31600000Y-69550000D02*
X31600000Y-71950000D01*
X31725000Y-69550000D02*
X31725000Y-71950000D01*
X31800000Y-69550000D02*
X26000000Y-69550000D01*
X31825000Y-71950000D02*
X31825000Y-69550000D01*
%TO.C,D5*%
X43800000Y-76050000D02*
X43800000Y-78450000D01*
X43800000Y-78450000D02*
X49600000Y-78450000D01*
X48875000Y-76050000D02*
X48875000Y-78450000D01*
X49050000Y-76050000D02*
X49050000Y-78450000D01*
X49225000Y-76050000D02*
X49225000Y-78450000D01*
X49400000Y-76050000D02*
X49400000Y-78450000D01*
X49525000Y-76050000D02*
X49525000Y-78450000D01*
X49600000Y-76050000D02*
X43800000Y-76050000D01*
X49625000Y-78450000D02*
X49625000Y-76050000D01*
%TO.C,D4*%
X46250000Y-55800000D02*
X46250000Y-58200000D01*
X46250000Y-58200000D02*
X52050000Y-58200000D01*
X51325000Y-55800000D02*
X51325000Y-58200000D01*
X51500000Y-55800000D02*
X51500000Y-58200000D01*
X51675000Y-55800000D02*
X51675000Y-58200000D01*
X51850000Y-55800000D02*
X51850000Y-58200000D01*
X51975000Y-55800000D02*
X51975000Y-58200000D01*
X52050000Y-55800000D02*
X46250000Y-55800000D01*
X52075000Y-58200000D02*
X52075000Y-55800000D01*
%TO.C,D14*%
X103550000Y-79050000D02*
X103550000Y-81450000D01*
X103550000Y-81450000D02*
X109350000Y-81450000D01*
X108625000Y-79050000D02*
X108625000Y-81450000D01*
X108800000Y-79050000D02*
X108800000Y-81450000D01*
X108975000Y-79050000D02*
X108975000Y-81450000D01*
X109150000Y-79050000D02*
X109150000Y-81450000D01*
X109275000Y-79050000D02*
X109275000Y-81450000D01*
X109350000Y-79050000D02*
X103550000Y-79050000D01*
X109375000Y-81450000D02*
X109375000Y-79050000D01*
%TD*%
D13*
%TO.C,U1*%
X120030000Y-56530000D03*
X120030000Y-59070000D03*
X120030000Y-61610000D03*
X120030000Y-64150000D03*
X120030000Y-66690000D03*
X120030000Y-69230000D03*
X120030000Y-71770000D03*
X120030000Y-74310000D03*
X120030000Y-76850000D03*
X120030000Y-79390000D03*
X120030000Y-81930000D03*
X120030000Y-84470000D03*
X135270000Y-84470000D03*
X135270000Y-81930000D03*
X135270000Y-79390000D03*
X135270000Y-76850000D03*
X135270000Y-74310000D03*
X135270000Y-71770000D03*
X135270000Y-69230000D03*
X135270000Y-66690000D03*
X135270000Y-64150000D03*
X135270000Y-61610000D03*
X135270000Y-59070000D03*
X135270000Y-56530000D03*
X122570000Y-79390000D03*
X125110000Y-79390000D03*
X127650000Y-79390000D03*
%TD*%
D14*
%TO.C,D3*%
X30425000Y-110500000D03*
D15*
X22625000Y-110500000D03*
%TD*%
D14*
%TO.C,D7*%
X80575000Y-54250000D03*
D15*
X72775000Y-54250000D03*
%TD*%
D14*
%TO.C,D11*%
X90250000Y-77250000D03*
D15*
X82450000Y-77250000D03*
%TD*%
D14*
%TO.C,D8*%
X70500000Y-72250000D03*
D15*
X62700000Y-72250000D03*
%TD*%
D14*
%TO.C,D2*%
X30500000Y-90500000D03*
D15*
X22700000Y-90500000D03*
%TD*%
D14*
%TO.C,D6*%
X50324999Y-97250000D03*
D15*
X42525001Y-97250000D03*
%TD*%
D14*
%TO.C,D15*%
X110000000Y-100250000D03*
D15*
X102200000Y-100250000D03*
%TD*%
D14*
%TO.C,D13*%
X110000000Y-60250000D03*
D15*
X102200000Y-60250000D03*
%TD*%
D14*
%TO.C,D10*%
X90500000Y-57000000D03*
D15*
X82700000Y-57000000D03*
%TD*%
D14*
%TO.C,D12*%
X90500000Y-97250000D03*
D15*
X82700000Y-97250000D03*
%TD*%
D16*
%TO.C,D16*%
X97340750Y-117427228D03*
D15*
X89659250Y-116072772D03*
%TD*%
D14*
%TO.C,D9*%
X70500000Y-92250000D03*
D15*
X62700000Y-92250000D03*
%TD*%
D17*
%TO.C,D17*%
X107215400Y-132601789D03*
D15*
X114284600Y-135898211D03*
%TD*%
D14*
%TO.C,D1*%
X32700000Y-70750000D03*
D15*
X24900000Y-70750000D03*
%TD*%
D14*
%TO.C,D5*%
X50500000Y-77250000D03*
D15*
X42700000Y-77250000D03*
%TD*%
D14*
%TO.C,D4*%
X52950000Y-57000000D03*
D15*
X45150000Y-57000000D03*
%TD*%
D14*
%TO.C,D14*%
X110250000Y-80250000D03*
D15*
X102450000Y-80250000D03*
%TD*%
M02*
