M48
; DRILL file {KiCad 9.0.2} date 2025-05-24T14:32:57-0400
; FORMAT={-:-/ absolute / metric / decimal}
; #@! TF.CreationDate,2025-05-24T14:32:57-04:00
; #@! TF.GenerationSoftware,Kicad,Pcbnew,9.0.2
; #@! TF.FileFunction,NonPlated,1,2,NPTH
FMAT,2
METRIC
; #@! TA.AperFunction,NonPlated,NPTH,ComponentDrill
T1C0.991
; #@! TA.AperFunction,NonPlated,NPTH,ComponentDrill
T2C1.702
; #@! TA.AperFunction,NonPlated,NPTH,ComponentDrill
T3C3.429
%
G90
G05
T1
X22.18Y-75.8
X22.18Y-95.8
X22.18Y-115.8
X32.62Y-75.8
X32.62Y-95.8
X32.62Y-115.8
X42.18Y-62.55
X42.18Y-82.55
X42.18Y-102.55
X52.62Y-62.55
X52.62Y-82.55
X52.62Y-102.55
X62.18Y-57.55
X62.18Y-77.55
X62.18Y-97.55
X72.62Y-57.55
X72.62Y-77.55
X72.62Y-97.55
X82.18Y-62.55
X82.18Y-82.55
X82.18Y-102.55
X91.739Y-124.457
X92.62Y-62.55
X92.62Y-82.55
X92.62Y-102.55
X101.93Y-65.55
X101.93Y-85.55
X101.93Y-105.55
X102.02Y-126.27
X112.37Y-65.55
X112.37Y-85.55
X112.37Y-105.55
X123.444Y-132.987
X132.906Y-137.4
T2
X21.9Y-80.0
X21.9Y-100.0
X21.9Y-120.0
X32.9Y-80.0
X32.9Y-100.0
X32.9Y-120.0
X41.9Y-66.75
X41.9Y-86.75
X41.9Y-106.75
X52.9Y-66.75
X52.9Y-86.75
X52.9Y-106.75
X61.9Y-61.75
X61.9Y-81.75
X61.9Y-101.75
X72.9Y-61.75
X72.9Y-81.75
X72.9Y-101.75
X81.9Y-66.75
X81.9Y-86.75
X81.9Y-106.75
X90.734Y-128.545
X92.9Y-66.75
X92.9Y-86.75
X92.9Y-106.75
X101.566Y-130.455
X101.65Y-69.75
X101.65Y-89.75
X101.65Y-109.75
X112.65Y-69.75
X112.65Y-89.75
X112.65Y-109.75
X121.415Y-136.676
X131.385Y-141.324
T3
X27.4Y-80.0
X27.4Y-100.0
X27.4Y-120.0
X47.4Y-66.75
X47.4Y-86.75
X47.4Y-106.75
X67.4Y-61.75
X67.4Y-81.75
X67.4Y-101.75
X87.4Y-66.75
X87.4Y-86.75
X87.4Y-106.75
X96.15Y-129.5
X107.15Y-69.75
X107.15Y-89.75
X107.15Y-109.75
X126.4Y-139.0
M30
