%TF.GenerationSoftware,KiCad,Pcbnew,9.0.2*%
%TF.CreationDate,2025-05-24T14:32:55-04:00*%
%TF.ProjectId,ErgoDecks,4572676f-4465-4636-9b73-2e6b69636164,rev?*%
%TF.SameCoordinates,Original*%
%TF.FileFunction,Copper,L2,Bot*%
%TF.FilePolarity,Positive*%
%FSLAX46Y46*%
G04 Gerber Fmt 4.6, Leading zero omitted, Abs format (unit mm)*
G04 Created by KiCad (PCBNEW 9.0.2) date 2025-05-24 14:32:55*
%MOMM*%
%LPD*%
G01*
G04 APERTURE LIST*
G04 Aperture macros list*
%AMRotRect*
0 Rectangle, with rotation*
0 The origin of the aperture is its center*
0 $1 length*
0 $2 width*
0 $3 Rotation angle, in degrees counterclockwise*
0 Add horizontal line*
21,1,$1,$2,0,0,$3*%
G04 Aperture macros list end*
%TA.AperFunction,ComponentPad*%
%ADD10C,2.032000*%
%TD*%
%TA.AperFunction,ComponentPad*%
%ADD11C,1.752600*%
%TD*%
%TA.AperFunction,ComponentPad*%
%ADD12R,1.600000X1.600000*%
%TD*%
%TA.AperFunction,SMDPad,CuDef*%
%ADD13R,2.500000X0.500000*%
%TD*%
%TA.AperFunction,SMDPad,CuDef*%
%ADD14R,1.200000X1.200000*%
%TD*%
%TA.AperFunction,ComponentPad*%
%ADD15C,1.600000*%
%TD*%
%TA.AperFunction,ComponentPad*%
%ADD16RotRect,1.600000X1.600000X170.000000*%
%TD*%
%TA.AperFunction,SMDPad,CuDef*%
%ADD17RotRect,2.500000X0.500000X170.000000*%
%TD*%
%TA.AperFunction,SMDPad,CuDef*%
%ADD18RotRect,1.200000X1.200000X170.000000*%
%TD*%
%TA.AperFunction,ComponentPad*%
%ADD19RotRect,1.600000X1.600000X335.000000*%
%TD*%
%TA.AperFunction,SMDPad,CuDef*%
%ADD20RotRect,2.500000X0.500000X335.000000*%
%TD*%
%TA.AperFunction,SMDPad,CuDef*%
%ADD21RotRect,1.200000X1.200000X335.000000*%
%TD*%
%TA.AperFunction,ViaPad*%
%ADD22C,0.600000*%
%TD*%
%TA.AperFunction,Conductor*%
%ADD23C,0.200000*%
%TD*%
G04 APERTURE END LIST*
D10*
%TO.P,K15,1*%
%TO.N,/Col4*%
X107150000Y-115650000D03*
%TO.P,K15,2*%
%TO.N,Net-(D15-A)*%
X102150000Y-113550000D03*
X112150000Y-113550000D03*
%TD*%
%TO.P,K1,1*%
%TO.N,/Col0*%
X27400000Y-85900000D03*
%TO.P,K1,2*%
%TO.N,Net-(D1-A)*%
X22400000Y-83800000D03*
X32400000Y-83800000D03*
%TD*%
%TO.P,K17,1*%
%TO.N,/Col4*%
X123906552Y-144347216D03*
%TO.P,K17,2*%
%TO.N,Net-(D17-A)*%
X120262512Y-140330878D03*
X129325590Y-144557061D03*
%TD*%
%TO.P,K9,1*%
%TO.N,/Col2*%
X67400000Y-107650000D03*
%TO.P,K9,2*%
%TO.N,Net-(D9-A)*%
X62400000Y-105550000D03*
X72400000Y-105550000D03*
%TD*%
%TO.P,K16,1*%
%TO.N,/Col3*%
X95125476Y-135310366D03*
%TO.P,K16,2*%
%TO.N,Net-(D16-A)*%
X90566098Y-132374029D03*
X100414176Y-134110510D03*
%TD*%
%TO.P,K5,1*%
%TO.N,/Col1*%
X47400000Y-92650000D03*
%TO.P,K5,2*%
%TO.N,Net-(D5-A)*%
X42400000Y-90550000D03*
X52400000Y-90550000D03*
%TD*%
D11*
%TO.P,U1,1,TX0/P0.06*%
%TO.N,unconnected-(U1-TX0{slash}P0.06-Pad1)*%
X120030000Y-56530000D03*
%TO.P,U1,2,RX1/P0.08*%
%TO.N,unconnected-(U1-RX1{slash}P0.08-Pad2)*%
X120030000Y-59070000D03*
%TO.P,U1,3,GND*%
%TO.N,unconnected-(U1-GND-Pad3)*%
X120030000Y-61610000D03*
%TO.P,U1,4,GND*%
%TO.N,unconnected-(U1-GND-Pad4)*%
X120030000Y-64150000D03*
%TO.P,U1,5,P0.17*%
%TO.N,/Row0*%
X120030000Y-66690000D03*
%TO.P,U1,6,P0.20*%
%TO.N,/Row1*%
X120030000Y-69230000D03*
%TO.P,U1,7,P0.22*%
%TO.N,/Row2*%
X120030000Y-71770000D03*
%TO.P,U1,8,P0.24*%
%TO.N,/Row3*%
X120030000Y-74310000D03*
%TO.P,U1,9,P1.00*%
%TO.N,/Col0*%
X120030000Y-76850000D03*
%TO.P,U1,10,P0.11*%
%TO.N,/Col1*%
X120030000Y-79390000D03*
%TO.P,U1,11,P1.04*%
%TO.N,unconnected-(U1-P1.04-Pad11)*%
X120030000Y-81930000D03*
%TO.P,U1,12,P1.06*%
%TO.N,unconnected-(U1-P1.06-Pad12)*%
X120030000Y-84470000D03*
%TO.P,U1,13,NFC1/P0.09*%
%TO.N,unconnected-(U1-NFC1{slash}P0.09-Pad13)*%
X135270000Y-84470000D03*
%TO.P,U1,14,NFC2/P0.10*%
%TO.N,unconnected-(U1-NFC2{slash}P0.10-Pad14)*%
X135270000Y-81930000D03*
%TO.P,U1,15,P1.11*%
%TO.N,unconnected-(U1-P1.11-Pad15)*%
X135270000Y-79390000D03*
%TO.P,U1,16,P1.13*%
%TO.N,unconnected-(U1-P1.13-Pad16)*%
X135270000Y-76850000D03*
%TO.P,U1,17,P1.15*%
%TO.N,unconnected-(U1-P1.15-Pad17)*%
X135270000Y-74310000D03*
%TO.P,U1,18,AIN0/P0.02*%
%TO.N,/Col4*%
X135270000Y-71770000D03*
%TO.P,U1,19,AIN5/P0.29*%
%TO.N,/Col3*%
X135270000Y-69230000D03*
%TO.P,U1,20,AIN7/P0.31*%
%TO.N,/Col2*%
X135270000Y-66690000D03*
%TO.P,U1,21,VCC*%
%TO.N,unconnected-(U1-VCC-Pad21)*%
X135270000Y-64150000D03*
%TO.P,U1,22,RST*%
%TO.N,unconnected-(U1-RST-Pad22)*%
X135270000Y-61610000D03*
%TO.P,U1,23,GND*%
%TO.N,unconnected-(U1-GND-Pad23)*%
X135270000Y-59070000D03*
%TO.P,U1,24,BATIN/P0.04*%
%TO.N,unconnected-(U1-BATIN{slash}P0.04-Pad24)*%
X135270000Y-56530000D03*
%TO.P,U1,31,P1.01*%
%TO.N,unconnected-(U1-P1.01-Pad31)*%
X122570000Y-79390000D03*
%TO.P,U1,32,P1.02*%
%TO.N,unconnected-(U1-P1.02-Pad32)*%
X125110000Y-79390000D03*
%TO.P,U1,33,P1.07*%
%TO.N,unconnected-(U1-P1.07-Pad33)*%
X127650000Y-79390000D03*
%TD*%
D10*
%TO.P,K6,1*%
%TO.N,/Col1*%
X47400000Y-112650000D03*
%TO.P,K6,2*%
%TO.N,Net-(D6-A)*%
X42400000Y-110550000D03*
X52400000Y-110550000D03*
%TD*%
%TO.P,K4,1*%
%TO.N,/Col1*%
X47400000Y-72650000D03*
%TO.P,K4,2*%
%TO.N,Net-(D4-A)*%
X42400000Y-70550000D03*
X52400000Y-70550000D03*
%TD*%
%TO.P,K3,1*%
%TO.N,/Col0*%
X27400000Y-125900000D03*
%TO.P,K3,2*%
%TO.N,Net-(D3-A)*%
X22400000Y-123800000D03*
X32400000Y-123800000D03*
%TD*%
%TO.P,K7,1*%
%TO.N,/Col2*%
X67400000Y-67650000D03*
%TO.P,K7,2*%
%TO.N,Net-(D7-A)*%
X62400000Y-65550000D03*
X72400000Y-65550000D03*
%TD*%
%TO.P,K8,1*%
%TO.N,/Col2*%
X67400000Y-87650000D03*
%TO.P,K8,2*%
%TO.N,Net-(D8-A)*%
X62400000Y-85550000D03*
X72400000Y-85550000D03*
%TD*%
%TO.P,K13,1*%
%TO.N,/Col4*%
X107150000Y-75650000D03*
%TO.P,K13,2*%
%TO.N,Net-(D13-A)*%
X102150000Y-73550000D03*
X112150000Y-73550000D03*
%TD*%
%TO.P,K2,1*%
%TO.N,/Col0*%
X27400000Y-105900000D03*
%TO.P,K2,2*%
%TO.N,Net-(D2-A)*%
X22400000Y-103800000D03*
X32400000Y-103800000D03*
%TD*%
%TO.P,K11,1*%
%TO.N,/Col3*%
X87400000Y-92650000D03*
%TO.P,K11,2*%
%TO.N,Net-(D11-A)*%
X82400000Y-90550000D03*
X92400000Y-90550000D03*
%TD*%
%TO.P,K14,1*%
%TO.N,/Col4*%
X107150000Y-95650000D03*
%TO.P,K14,2*%
%TO.N,Net-(D14-A)*%
X102150000Y-93550000D03*
X112150000Y-93550000D03*
%TD*%
%TO.P,K10,1*%
%TO.N,/Col3*%
X87400000Y-72650000D03*
%TO.P,K10,2*%
%TO.N,Net-(D10-A)*%
X82400000Y-70550000D03*
X92400000Y-70550000D03*
%TD*%
%TO.P,K12,1*%
%TO.N,/Col3*%
X87400000Y-112650000D03*
%TO.P,K12,2*%
%TO.N,Net-(D12-A)*%
X82400000Y-110550000D03*
X92400000Y-110550000D03*
%TD*%
D12*
%TO.P,D3,1,K*%
%TO.N,/Row2*%
X30425000Y-110500000D03*
D13*
X29225000Y-110500000D03*
D14*
X28100000Y-110500000D03*
%TO.P,D3,2,A*%
%TO.N,Net-(D3-A)*%
X24950000Y-110500000D03*
D13*
X23825000Y-110500000D03*
D15*
X22625000Y-110500000D03*
%TD*%
D12*
%TO.P,D7,1,K*%
%TO.N,/Row0*%
X80575000Y-54250000D03*
D13*
X79375000Y-54250000D03*
D14*
X78250000Y-54250000D03*
%TO.P,D7,2,A*%
%TO.N,Net-(D7-A)*%
X75100000Y-54250000D03*
D13*
X73975000Y-54250000D03*
D15*
X72775000Y-54250000D03*
%TD*%
D12*
%TO.P,D11,1,K*%
%TO.N,/Row1*%
X90250000Y-77250000D03*
D13*
X89050000Y-77250000D03*
D14*
X87925000Y-77250000D03*
%TO.P,D11,2,A*%
%TO.N,Net-(D11-A)*%
X84775000Y-77250000D03*
D13*
X83650000Y-77250000D03*
D15*
X82450000Y-77250000D03*
%TD*%
D12*
%TO.P,D8,1,K*%
%TO.N,/Row1*%
X70500000Y-72250000D03*
D13*
X69300000Y-72250000D03*
D14*
X68175000Y-72250000D03*
%TO.P,D8,2,A*%
%TO.N,Net-(D8-A)*%
X65025000Y-72250000D03*
D13*
X63900000Y-72250000D03*
D15*
X62700000Y-72250000D03*
%TD*%
D12*
%TO.P,D2,1,K*%
%TO.N,/Row1*%
X30500000Y-90500000D03*
D13*
X29300000Y-90500000D03*
D14*
X28175000Y-90500000D03*
%TO.P,D2,2,A*%
%TO.N,Net-(D2-A)*%
X25025000Y-90500000D03*
D13*
X23900000Y-90500000D03*
D15*
X22700000Y-90500000D03*
%TD*%
D12*
%TO.P,D6,1,K*%
%TO.N,/Row2*%
X50324999Y-97250000D03*
D13*
X49125000Y-97250000D03*
D14*
X48000000Y-97250000D03*
%TO.P,D6,2,A*%
%TO.N,Net-(D6-A)*%
X44850000Y-97250000D03*
D13*
X43725000Y-97250000D03*
D15*
X42525001Y-97250000D03*
%TD*%
D12*
%TO.P,D15,1,K*%
%TO.N,/Row2*%
X110000000Y-100250000D03*
D13*
X108800000Y-100250000D03*
D14*
X107675000Y-100250000D03*
%TO.P,D15,2,A*%
%TO.N,Net-(D15-A)*%
X104525000Y-100250000D03*
D13*
X103400000Y-100250000D03*
D15*
X102200000Y-100250000D03*
%TD*%
D12*
%TO.P,D13,1,K*%
%TO.N,/Row0*%
X110000000Y-60250000D03*
D13*
X108800000Y-60250000D03*
D14*
X107675000Y-60250000D03*
%TO.P,D13,2,A*%
%TO.N,Net-(D13-A)*%
X104525000Y-60250000D03*
D13*
X103400000Y-60250000D03*
D15*
X102200000Y-60250000D03*
%TD*%
D12*
%TO.P,D10,1,K*%
%TO.N,/Row0*%
X90500000Y-57000000D03*
D13*
X89300000Y-57000000D03*
D14*
X88175000Y-57000000D03*
%TO.P,D10,2,A*%
%TO.N,Net-(D10-A)*%
X85025000Y-57000000D03*
D13*
X83900000Y-57000000D03*
D15*
X82700000Y-57000000D03*
%TD*%
D12*
%TO.P,D12,1,K*%
%TO.N,/Row2*%
X90500000Y-97250000D03*
D13*
X89300000Y-97250000D03*
D14*
X88175000Y-97250000D03*
%TO.P,D12,2,A*%
%TO.N,Net-(D12-A)*%
X85025000Y-97250000D03*
D13*
X83900000Y-97250000D03*
D15*
X82700000Y-97250000D03*
%TD*%
D16*
%TO.P,D16,1,K*%
%TO.N,/Row3*%
X97340750Y-117427228D03*
D17*
X96158981Y-117218850D03*
D18*
X95051072Y-117023496D03*
%TO.P,D16,2,A*%
%TO.N,Net-(D16-A)*%
X91948928Y-116476504D03*
D17*
X90841019Y-116281150D03*
D15*
X89659250Y-116072772D03*
%TD*%
D12*
%TO.P,D9,1,K*%
%TO.N,/Row2*%
X70500000Y-92250000D03*
D13*
X69300000Y-92250000D03*
D14*
X68175000Y-92250000D03*
%TO.P,D9,2,A*%
%TO.N,Net-(D9-A)*%
X65025000Y-92250000D03*
D13*
X63900000Y-92250000D03*
D15*
X62700000Y-92250000D03*
%TD*%
D19*
%TO.P,D17,1,K*%
%TO.N,/Row3*%
X107215400Y-132601789D03*
D20*
X108302969Y-133108931D03*
D21*
X109322565Y-133584376D03*
%TO.P,D17,2,A*%
%TO.N,Net-(D17-A)*%
X112177435Y-134915624D03*
D20*
X113197031Y-135391069D03*
D15*
X114284600Y-135898211D03*
%TD*%
D12*
%TO.P,D1,1,K*%
%TO.N,/Row0*%
X32700000Y-70750000D03*
D13*
X31500000Y-70750000D03*
D14*
X30375000Y-70750000D03*
%TO.P,D1,2,A*%
%TO.N,Net-(D1-A)*%
X27225000Y-70750000D03*
D13*
X26100000Y-70750000D03*
D15*
X24900000Y-70750000D03*
%TD*%
D12*
%TO.P,D5,1,K*%
%TO.N,/Row1*%
X50500000Y-77250000D03*
D13*
X49300000Y-77250000D03*
D14*
X48175000Y-77250000D03*
%TO.P,D5,2,A*%
%TO.N,Net-(D5-A)*%
X45025000Y-77250000D03*
D13*
X43900000Y-77250000D03*
D15*
X42700000Y-77250000D03*
%TD*%
D12*
%TO.P,D4,1,K*%
%TO.N,/Row0*%
X52950000Y-57000000D03*
D13*
X51750000Y-57000000D03*
D14*
X50625000Y-57000000D03*
%TO.P,D4,2,A*%
%TO.N,Net-(D4-A)*%
X47475000Y-57000000D03*
D13*
X46350000Y-57000000D03*
D15*
X45150000Y-57000000D03*
%TD*%
D12*
%TO.P,D14,1,K*%
%TO.N,/Row1*%
X110250000Y-80250000D03*
D13*
X109050000Y-80250000D03*
D14*
X107925000Y-80250000D03*
%TO.P,D14,2,A*%
%TO.N,Net-(D14-A)*%
X104775000Y-80250000D03*
D13*
X103650000Y-80250000D03*
D15*
X102450000Y-80250000D03*
%TD*%
D22*
%TO.N,Net-(D14-A)*%
X111000000Y-91750000D03*
X109074265Y-94574265D03*
X107750000Y-92750000D03*
%TO.N,/Col1*%
X58750000Y-79750000D03*
X109000000Y-96250000D03*
%TO.N,/Col2*%
X72500000Y-70500000D03*
X117500000Y-67750000D03*
%TO.N,/Col3*%
X98000000Y-74250000D03*
X117000000Y-70750000D03*
%TD*%
D23*
%TO.N,/Row0*%
X79474000Y-53149000D02*
X80575000Y-54250000D01*
X52950000Y-57000000D02*
X56801000Y-53149000D01*
X56801000Y-53149000D02*
X79474000Y-53149000D01*
X52950000Y-57550000D02*
X52950000Y-57000000D01*
X110000000Y-60250000D02*
X113590000Y-60250000D01*
X113590000Y-60250000D02*
X120030000Y-66690000D01*
X39750000Y-70750000D02*
X52950000Y-57550000D01*
X90500000Y-57000000D02*
X106750000Y-57000000D01*
X106750000Y-57000000D02*
X110000000Y-60250000D01*
X80575000Y-54250000D02*
X87750000Y-54250000D01*
X32700000Y-70750000D02*
X39750000Y-70750000D01*
X87750000Y-54250000D02*
X90500000Y-57000000D01*
%TO.N,Net-(D1-A)*%
X22400000Y-83800000D02*
X32400000Y-83800000D01*
%TO.N,Net-(D2-A)*%
X32400000Y-103800000D02*
X22400000Y-103800000D01*
%TO.N,/Row1*%
X110250000Y-80250000D02*
X110250000Y-79010000D01*
X107250000Y-77250000D02*
X110250000Y-80250000D01*
X64953700Y-76703700D02*
X65500000Y-77250000D01*
X51046300Y-76703700D02*
X64953700Y-76703700D01*
X70500000Y-72250000D02*
X76601000Y-78351000D01*
X65500000Y-77250000D02*
X70500000Y-72250000D01*
X49500000Y-78250000D02*
X50500000Y-77250000D01*
X30500000Y-90500000D02*
X31500000Y-90500000D01*
X76601000Y-78351000D02*
X89149000Y-78351000D01*
X110250000Y-79010000D02*
X120030000Y-69230000D01*
X31500000Y-90500000D02*
X43750000Y-78250000D01*
X90250000Y-77250000D02*
X107250000Y-77250000D01*
X89149000Y-78351000D02*
X90250000Y-77250000D01*
X43750000Y-78250000D02*
X49500000Y-78250000D01*
X50500000Y-77250000D02*
X51046300Y-76703700D01*
%TO.N,/Row2*%
X120030000Y-72645046D02*
X120030000Y-71770000D01*
X70500000Y-92250000D02*
X84500000Y-92250000D01*
X110000000Y-100250000D02*
X110000000Y-82675046D01*
X69399000Y-93351000D02*
X54223999Y-93351000D01*
X107000000Y-97250000D02*
X110000000Y-100250000D01*
X84500000Y-92250000D02*
X89500000Y-97250000D01*
X42026899Y-105548100D02*
X50324999Y-97250000D01*
X54223999Y-93351000D02*
X50324999Y-97250000D01*
X110000000Y-82675046D02*
X120030000Y-72645046D01*
X70500000Y-92250000D02*
X69399000Y-93351000D01*
X30425000Y-110500000D02*
X35376900Y-105548100D01*
X89500000Y-97250000D02*
X90500000Y-97250000D01*
X90500000Y-97250000D02*
X107000000Y-97250000D01*
X35376900Y-105548100D02*
X42026899Y-105548100D01*
%TO.N,Net-(D3-A)*%
X22400000Y-123800000D02*
X32400000Y-123800000D01*
%TO.N,Net-(D4-A)*%
X42400000Y-70550000D02*
X52400000Y-70550000D01*
%TO.N,Net-(D5-A)*%
X52400000Y-90550000D02*
X42400000Y-90550000D01*
%TO.N,Net-(D6-A)*%
X52400000Y-110550000D02*
X42400000Y-110550000D01*
%TO.N,Net-(D7-A)*%
X62400000Y-65550000D02*
X72400000Y-65550000D01*
X74101900Y-63848100D02*
X74101900Y-55576900D01*
X74101900Y-55576900D02*
X72775000Y-54250000D01*
X72400000Y-65550000D02*
X74101900Y-63848100D01*
%TO.N,Net-(D8-A)*%
X62400000Y-85550000D02*
X72400000Y-85550000D01*
%TO.N,Net-(D9-A)*%
X72400000Y-105550000D02*
X62400000Y-105550000D01*
%TO.N,Net-(D10-A)*%
X82400000Y-70550000D02*
X92400000Y-70550000D01*
%TO.N,Net-(D11-A)*%
X82400000Y-90550000D02*
X92400000Y-90550000D01*
%TO.N,Net-(D12-A)*%
X92400000Y-110550000D02*
X82400000Y-110550000D01*
%TO.N,Net-(D13-A)*%
X102150000Y-73550000D02*
X112150000Y-73550000D01*
%TO.N,Net-(D14-A)*%
X111000000Y-92400000D02*
X111000000Y-91750000D01*
X109074265Y-94574265D02*
X109074265Y-94074265D01*
X112150000Y-93550000D02*
X111000000Y-92400000D01*
X109074265Y-94074265D02*
X107750000Y-92750000D01*
%TO.N,Net-(D15-A)*%
X112150000Y-113550000D02*
X102150000Y-113550000D01*
%TO.N,/Row3*%
X100431769Y-126012196D02*
X107021362Y-132601789D01*
X100431769Y-120518247D02*
X100431769Y-126012196D01*
X97340750Y-117427228D02*
X100431769Y-114336209D01*
X117799000Y-95951000D02*
X117799000Y-76541000D01*
X97340750Y-117427228D02*
X100431769Y-120518247D01*
X100431769Y-114336209D02*
X100431769Y-113318231D01*
X100431769Y-113318231D02*
X117799000Y-95951000D01*
X107021362Y-132601789D02*
X107215400Y-132601789D01*
X117799000Y-76541000D02*
X120030000Y-74310000D01*
%TO.N,Net-(D16-A)*%
X98677695Y-132374029D02*
X90566098Y-132374029D01*
X100414176Y-134110510D02*
X98677695Y-132374029D01*
%TO.N,Net-(D17-A)*%
X122961850Y-143030216D02*
X120262512Y-140330878D01*
X127798745Y-143030216D02*
X122961850Y-143030216D01*
X129325590Y-144557061D02*
X127798745Y-143030216D01*
%TO.N,/Col1*%
X59748000Y-78752000D02*
X92351743Y-78752000D01*
X58750000Y-79750000D02*
X59748000Y-78752000D01*
X92351743Y-78752000D02*
X109000000Y-95400257D01*
X109000000Y-95400257D02*
X109000000Y-96250000D01*
%TO.N,/Col2*%
X99433257Y-69233000D02*
X102015757Y-71815500D01*
X73767000Y-69233000D02*
X99433257Y-69233000D01*
X113434500Y-71815500D02*
X117500000Y-67750000D01*
X72500000Y-70500000D02*
X73767000Y-69233000D01*
X102015757Y-71815500D02*
X113434500Y-71815500D01*
%TO.N,/Col3*%
X98000000Y-74250000D02*
X100033500Y-72216500D01*
X115533500Y-72216500D02*
X117000000Y-70750000D01*
X100033500Y-72216500D02*
X115533500Y-72216500D01*
%TD*%
M02*
