%TF.GenerationSoftware,KiCad,Pcbnew,9.0.2*%
%TF.CreationDate,2025-05-24T14:32:55-04:00*%
%TF.ProjectId,ErgoDecks,4572676f-4465-4636-9b73-2e6b69636164,rev?*%
%TF.SameCoordinates,Original*%
%TF.FileFunction,Soldermask,Top*%
%TF.FilePolarity,Negative*%
%FSLAX46Y46*%
G04 Gerber Fmt 4.6, Leading zero omitted, Abs format (unit mm)*
G04 Created by KiCad (PCBNEW 9.0.2) date 2025-05-24 14:32:55*
%MOMM*%
%LPD*%
G01*
G04 APERTURE LIST*
G04 Aperture macros list*
%AMRotRect*
0 Rectangle, with rotation*
0 The origin of the aperture is its center*
0 $1 length*
0 $2 width*
0 $3 Rotation angle, in degrees counterclockwise*
0 Add horizontal line*
21,1,$1,$2,0,0,$3*%
G04 Aperture macros list end*
%ADD10C,1.701800*%
%ADD11C,0.990600*%
%ADD12C,3.429000*%
%ADD13C,2.032000*%
%ADD14C,1.752600*%
%ADD15R,1.600000X1.600000*%
%ADD16C,1.600000*%
%ADD17RotRect,1.600000X1.600000X170.000000*%
%ADD18RotRect,1.600000X1.600000X335.000000*%
G04 APERTURE END LIST*
D10*
%TO.C,K15*%
X101650000Y-109750000D03*
D11*
X101930000Y-105550000D03*
D12*
X107150000Y-109750000D03*
D11*
X112370000Y-105550000D03*
D10*
X112650000Y-109750000D03*
D13*
X107150000Y-115650000D03*
X102150000Y-113550000D03*
X112150000Y-113550000D03*
%TD*%
D10*
%TO.C,K1*%
X21900000Y-80000000D03*
D11*
X22180000Y-75800000D03*
D12*
X27400000Y-80000000D03*
D11*
X32620000Y-75800000D03*
D10*
X32900000Y-80000000D03*
D13*
X27400000Y-85900000D03*
X22400000Y-83800000D03*
X32400000Y-83800000D03*
%TD*%
D10*
%TO.C,K17*%
X121415307Y-136675600D03*
D11*
X123444070Y-132987440D03*
D12*
X126400000Y-139000000D03*
D11*
X132905923Y-137399575D03*
D10*
X131384693Y-141324400D03*
D13*
X123906552Y-144347216D03*
X120262512Y-140330878D03*
X129325590Y-144557061D03*
%TD*%
D10*
%TO.C,K9*%
X61900000Y-101750000D03*
D11*
X62180000Y-97550000D03*
D12*
X67400000Y-101750000D03*
D11*
X72620000Y-97550000D03*
D10*
X72900000Y-101750000D03*
D13*
X67400000Y-107650000D03*
X62400000Y-105550000D03*
X72400000Y-105550000D03*
%TD*%
D10*
%TO.C,K16*%
X90733557Y-128544935D03*
D11*
X91738626Y-124457364D03*
D12*
X96150000Y-129500000D03*
D11*
X102020019Y-126270251D03*
D10*
X101566443Y-130455065D03*
D13*
X95125476Y-135310366D03*
X90566098Y-132374029D03*
X100414176Y-134110510D03*
%TD*%
D10*
%TO.C,K5*%
X41900000Y-86750000D03*
D11*
X42180000Y-82550000D03*
D12*
X47400000Y-86750000D03*
D11*
X52620000Y-82550000D03*
D10*
X52900000Y-86750000D03*
D13*
X47400000Y-92650000D03*
X42400000Y-90550000D03*
X52400000Y-90550000D03*
%TD*%
D14*
%TO.C,U1*%
X120030000Y-56530000D03*
X120030000Y-59070000D03*
X120030000Y-61610000D03*
X120030000Y-64150000D03*
X120030000Y-66690000D03*
X120030000Y-69230000D03*
X120030000Y-71770000D03*
X120030000Y-74310000D03*
X120030000Y-76850000D03*
X120030000Y-79390000D03*
X120030000Y-81930000D03*
X120030000Y-84470000D03*
X135270000Y-84470000D03*
X135270000Y-81930000D03*
X135270000Y-79390000D03*
X135270000Y-76850000D03*
X135270000Y-74310000D03*
X135270000Y-71770000D03*
X135270000Y-69230000D03*
X135270000Y-66690000D03*
X135270000Y-64150000D03*
X135270000Y-61610000D03*
X135270000Y-59070000D03*
X135270000Y-56530000D03*
X122570000Y-79390000D03*
X125110000Y-79390000D03*
X127650000Y-79390000D03*
%TD*%
D10*
%TO.C,K6*%
X41900000Y-106750000D03*
D11*
X42180000Y-102550000D03*
D12*
X47400000Y-106750000D03*
D11*
X52620000Y-102550000D03*
D10*
X52900000Y-106750000D03*
D13*
X47400000Y-112650000D03*
X42400000Y-110550000D03*
X52400000Y-110550000D03*
%TD*%
D10*
%TO.C,K4*%
X41900000Y-66750000D03*
D11*
X42180000Y-62550000D03*
D12*
X47400000Y-66750000D03*
D11*
X52620000Y-62550000D03*
D10*
X52900000Y-66750000D03*
D13*
X47400000Y-72650000D03*
X42400000Y-70550000D03*
X52400000Y-70550000D03*
%TD*%
D10*
%TO.C,K3*%
X21900000Y-120000000D03*
D11*
X22180000Y-115800000D03*
D12*
X27400000Y-120000000D03*
D11*
X32620000Y-115800000D03*
D10*
X32900000Y-120000000D03*
D13*
X27400000Y-125900000D03*
X22400000Y-123800000D03*
X32400000Y-123800000D03*
%TD*%
D10*
%TO.C,K7*%
X61900000Y-61750000D03*
D11*
X62180000Y-57550000D03*
D12*
X67400000Y-61750000D03*
D11*
X72620000Y-57550000D03*
D10*
X72900000Y-61750000D03*
D13*
X67400000Y-67650000D03*
X62400000Y-65550000D03*
X72400000Y-65550000D03*
%TD*%
D10*
%TO.C,K8*%
X61900000Y-81750000D03*
D11*
X62180000Y-77550000D03*
D12*
X67400000Y-81750000D03*
D11*
X72620000Y-77550000D03*
D10*
X72900000Y-81750000D03*
D13*
X67400000Y-87650000D03*
X62400000Y-85550000D03*
X72400000Y-85550000D03*
%TD*%
D10*
%TO.C,K13*%
X101650000Y-69750000D03*
D11*
X101930000Y-65550000D03*
D12*
X107150000Y-69750000D03*
D11*
X112370000Y-65550000D03*
D10*
X112650000Y-69750000D03*
D13*
X107150000Y-75650000D03*
X102150000Y-73550000D03*
X112150000Y-73550000D03*
%TD*%
D10*
%TO.C,K2*%
X21900000Y-100000000D03*
D11*
X22180000Y-95800000D03*
D12*
X27400000Y-100000000D03*
D11*
X32620000Y-95800000D03*
D10*
X32900000Y-100000000D03*
D13*
X27400000Y-105900000D03*
X22400000Y-103800000D03*
X32400000Y-103800000D03*
%TD*%
D10*
%TO.C,K11*%
X81900000Y-86750000D03*
D11*
X82180000Y-82550000D03*
D12*
X87400000Y-86750000D03*
D11*
X92620000Y-82550000D03*
D10*
X92900000Y-86750000D03*
D13*
X87400000Y-92650000D03*
X82400000Y-90550000D03*
X92400000Y-90550000D03*
%TD*%
D10*
%TO.C,K14*%
X101650000Y-89750000D03*
D11*
X101930000Y-85550000D03*
D12*
X107150000Y-89750000D03*
D11*
X112370000Y-85550000D03*
D10*
X112650000Y-89750000D03*
D13*
X107150000Y-95650000D03*
X102150000Y-93550000D03*
X112150000Y-93550000D03*
%TD*%
D10*
%TO.C,K10*%
X81900000Y-66750000D03*
D11*
X82180000Y-62550000D03*
D12*
X87400000Y-66750000D03*
D11*
X92620000Y-62550000D03*
D10*
X92900000Y-66750000D03*
D13*
X87400000Y-72650000D03*
X82400000Y-70550000D03*
X92400000Y-70550000D03*
%TD*%
D10*
%TO.C,K12*%
X81900000Y-106750000D03*
D11*
X82180000Y-102550000D03*
D12*
X87400000Y-106750000D03*
D11*
X92620000Y-102550000D03*
D10*
X92900000Y-106750000D03*
D13*
X87400000Y-112650000D03*
X82400000Y-110550000D03*
X92400000Y-110550000D03*
%TD*%
D15*
%TO.C,D3*%
X30425000Y-110500000D03*
D16*
X22625000Y-110500000D03*
%TD*%
D15*
%TO.C,D7*%
X80575000Y-54250000D03*
D16*
X72775000Y-54250000D03*
%TD*%
D15*
%TO.C,D11*%
X90250000Y-77250000D03*
D16*
X82450000Y-77250000D03*
%TD*%
D15*
%TO.C,D8*%
X70500000Y-72250000D03*
D16*
X62700000Y-72250000D03*
%TD*%
D15*
%TO.C,D2*%
X30500000Y-90500000D03*
D16*
X22700000Y-90500000D03*
%TD*%
D15*
%TO.C,D6*%
X50324999Y-97250000D03*
D16*
X42525001Y-97250000D03*
%TD*%
D15*
%TO.C,D15*%
X110000000Y-100250000D03*
D16*
X102200000Y-100250000D03*
%TD*%
D15*
%TO.C,D13*%
X110000000Y-60250000D03*
D16*
X102200000Y-60250000D03*
%TD*%
D15*
%TO.C,D10*%
X90500000Y-57000000D03*
D16*
X82700000Y-57000000D03*
%TD*%
D15*
%TO.C,D12*%
X90500000Y-97250000D03*
D16*
X82700000Y-97250000D03*
%TD*%
D17*
%TO.C,D16*%
X97340750Y-117427228D03*
D16*
X89659250Y-116072772D03*
%TD*%
D15*
%TO.C,D9*%
X70500000Y-92250000D03*
D16*
X62700000Y-92250000D03*
%TD*%
D18*
%TO.C,D17*%
X107215400Y-132601789D03*
D16*
X114284600Y-135898211D03*
%TD*%
D15*
%TO.C,D1*%
X32700000Y-70750000D03*
D16*
X24900000Y-70750000D03*
%TD*%
D15*
%TO.C,D5*%
X50500000Y-77250000D03*
D16*
X42700000Y-77250000D03*
%TD*%
D15*
%TO.C,D4*%
X52950000Y-57000000D03*
D16*
X45150000Y-57000000D03*
%TD*%
D15*
%TO.C,D14*%
X110250000Y-80250000D03*
D16*
X102450000Y-80250000D03*
%TD*%
M02*
